<svg width="250" height="150" viewBox="0 0 250 150" fill="none" xmlns="http://www.w3.org/2000/svg">
<path fill-rule="evenodd" clip-rule="evenodd" d="M135 1.36364C135 8.89479 128.895 15 121.364 15C113.832 15 107.727 8.89479 107.727 1.36364C107.727 0.90341 107.75 0.448509 107.795 0H0V58.6364C7.53116 58.6364 13.6364 64.7416 13.6364 72.2727C13.6364 79.8039 7.53116 85.9091 0 85.9091V150H107.727C107.727 142.469 113.832 136.364 121.364 136.364C128.895 136.364 135 142.469 135 150H249.545V85.9091C242.014 85.9091 235.909 79.8039 235.909 72.2727C235.909 64.7416 242.014 58.6364 249.545 58.6364V0H134.933C134.977 0.448509 135 0.90341 135 1.36364Z" fill="#D7E4BD"/>
<path d="M113.148 68L110.908 61.408H101.884L99.6435 68H96.9235L104.732 45.664H108.156L115.964 68H113.148ZM106.46 48.16H106.3L102.524 59.04H110.236L106.46 48.16ZM119.408 51.488H121.968V54.176H122.096C122.522 53.1307 123.141 52.3627 123.952 51.872C124.784 51.36 125.776 51.104 126.928 51.104C127.952 51.104 128.88 51.3067 129.712 51.712C130.544 52.1173 131.248 52.6933 131.824 53.44C132.421 54.1867 132.869 55.0933 133.168 56.16C133.488 57.2267 133.648 58.4213 133.648 59.744C133.648 61.0667 133.488 62.2613 133.168 63.328C132.869 64.3947 132.421 65.3013 131.824 66.048C131.248 66.7947 130.544 67.3707 129.712 67.776C128.88 68.1813 127.952 68.384 126.928 68.384C124.688 68.384 123.077 67.36 122.096 65.312H121.968V74.4H119.408V51.488ZM126.224 66.08C127.674 66.08 128.816 65.632 129.648 64.736C130.48 63.8187 130.896 62.624 130.896 61.152V58.336C130.896 56.864 130.48 55.68 129.648 54.784C128.816 53.8667 127.674 53.408 126.224 53.408C125.648 53.408 125.093 53.4933 124.56 53.664C124.048 53.8133 123.6 54.0267 123.216 54.304C122.832 54.5813 122.522 54.9227 122.288 55.328C122.074 55.712 121.968 56.128 121.968 56.576V62.72C121.968 63.2533 122.074 63.7333 122.288 64.16C122.522 64.5653 122.832 64.9173 123.216 65.216C123.6 65.4933 124.048 65.7067 124.56 65.856C125.093 66.0053 125.648 66.08 126.224 66.08ZM137.97 51.488H140.53V54.176H140.658C141.085 53.1307 141.703 52.3627 142.514 51.872C143.346 51.36 144.338 51.104 145.49 51.104C146.514 51.104 147.442 51.3067 148.274 51.712C149.106 52.1173 149.81 52.6933 150.386 53.44C150.983 54.1867 151.431 55.0933 151.73 56.16C152.05 57.2267 152.21 58.4213 152.21 59.744C152.21 61.0667 152.05 62.2613 151.73 63.328C151.431 64.3947 150.983 65.3013 150.386 66.048C149.81 66.7947 149.106 67.3707 148.274 67.776C147.442 68.1813 146.514 68.384 145.49 68.384C143.25 68.384 141.639 67.36 140.658 65.312H140.53V74.4H137.97V51.488ZM144.786 66.08C146.237 66.08 147.378 65.632 148.21 64.736C149.042 63.8187 149.458 62.624 149.458 61.152V58.336C149.458 56.864 149.042 55.68 148.21 54.784C147.378 53.8667 146.237 53.408 144.786 53.408C144.21 53.408 143.655 53.4933 143.122 53.664C142.61 53.8133 142.162 54.0267 141.778 54.304C141.394 54.5813 141.085 54.9227 140.85 55.328C140.637 55.712 140.53 56.128 140.53 56.576V62.72C140.53 63.2533 140.637 63.7333 140.85 64.16C141.085 64.5653 141.394 64.9173 141.778 65.216C142.162 65.4933 142.61 65.7067 143.122 65.856C143.655 66.0053 144.21 66.08 144.786 66.08ZM79.1166 83.664H86.6046C87.9913 83.664 89.25 83.8987 90.3806 84.368C91.5113 84.8373 92.4713 85.5413 93.2606 86.48C94.0713 87.3973 94.69 88.56 95.1166 89.968C95.5433 91.3547 95.7566 92.976 95.7566 94.832C95.7566 96.688 95.5433 98.32 95.1166 99.728C94.69 101.115 94.0713 102.277 93.2606 103.216C92.4713 104.133 91.5113 104.827 90.3806 105.296C89.25 105.765 87.9913 106 86.6046 106H79.1166V83.664ZM86.6046 103.632C87.522 103.632 88.3646 103.483 89.1326 103.184C89.9006 102.864 90.562 102.405 91.1166 101.808C91.6713 101.211 92.098 100.485 92.3966 99.632C92.7166 98.7573 92.8766 97.7653 92.8766 96.656V93.008C92.8766 91.8987 92.7166 90.9173 92.3966 90.064C92.098 89.1893 91.6713 88.4533 91.1166 87.856C90.562 87.2587 89.9006 86.8107 89.1326 86.512C88.3646 86.192 87.522 86.032 86.6046 86.032H81.8046V103.632H86.6046ZM106.537 106.384C105.407 106.384 104.383 106.181 103.465 105.776C102.569 105.371 101.791 104.795 101.129 104.048C100.489 103.28 99.988 102.373 99.6254 101.328C99.284 100.261 99.1134 99.0667 99.1134 97.744C99.1134 96.4427 99.284 95.2587 99.6254 94.192C99.988 93.1253 100.489 92.2187 101.129 91.472C101.791 90.704 102.569 90.1173 103.465 89.712C104.383 89.3067 105.407 89.104 106.537 89.104C107.647 89.104 108.639 89.3067 109.513 89.712C110.388 90.1173 111.135 90.6827 111.753 91.408C112.372 92.112 112.841 92.9547 113.161 93.936C113.503 94.9173 113.673 95.9947 113.673 97.168V98.384H101.801V99.152C101.801 99.856 101.908 100.517 102.121 101.136C102.356 101.733 102.676 102.256 103.081 102.704C103.508 103.152 104.02 103.504 104.617 103.76C105.236 104.016 105.929 104.144 106.697 104.144C107.743 104.144 108.649 103.899 109.417 103.408C110.207 102.917 110.815 102.213 111.241 101.296L113.065 102.608C112.532 103.739 111.7 104.656 110.569 105.36C109.439 106.043 108.095 106.384 106.537 106.384ZM106.537 91.248C105.833 91.248 105.193 91.376 104.617 91.632C104.041 91.8667 103.54 92.208 103.113 92.656C102.708 93.104 102.388 93.6373 102.153 94.256C101.919 94.8533 101.801 95.5147 101.801 96.24V96.464H110.921V96.112C110.921 94.64 110.516 93.4667 109.705 92.592C108.916 91.696 107.86 91.248 106.537 91.248ZM122.852 106.384C121.316 106.384 120.025 106.096 118.98 105.52C117.956 104.923 117.071 104.133 116.324 103.152L118.148 101.68C118.788 102.491 119.503 103.12 120.292 103.568C121.081 103.995 121.999 104.208 123.044 104.208C124.132 104.208 124.975 103.973 125.572 103.504C126.191 103.035 126.5 102.373 126.5 101.52C126.5 100.88 126.287 100.336 125.86 99.888C125.455 99.4187 124.708 99.0987 123.62 98.928L122.308 98.736C121.54 98.6293 120.836 98.4693 120.196 98.256C119.556 98.0213 118.991 97.7227 118.5 97.36C118.031 96.976 117.657 96.5067 117.38 95.952C117.124 95.3973 116.996 94.736 116.996 93.968C116.996 93.1573 117.145 92.4533 117.444 91.856C117.743 91.2373 118.148 90.7253 118.66 90.32C119.193 89.9147 119.823 89.616 120.548 89.424C121.273 89.2107 122.052 89.104 122.884 89.104C124.228 89.104 125.348 89.3387 126.244 89.808C127.161 90.2773 127.961 90.928 128.644 91.76L126.948 93.296C126.585 92.784 126.052 92.3253 125.348 91.92C124.644 91.4933 123.759 91.28 122.692 91.28C121.625 91.28 120.815 91.5147 120.26 91.984C119.727 92.432 119.46 93.0507 119.46 93.84C119.46 94.6507 119.727 95.2373 120.26 95.6C120.815 95.9627 121.604 96.2293 122.628 96.4L123.908 96.592C125.743 96.8693 127.044 97.4027 127.812 98.192C128.58 98.96 128.964 99.9733 128.964 101.232C128.964 102.832 128.42 104.091 127.332 105.008C126.244 105.925 124.751 106.384 122.852 106.384ZM134.766 85.616C134.211 85.616 133.806 85.488 133.55 85.232C133.315 84.9547 133.198 84.6027 133.198 84.176V83.76C133.198 83.3333 133.315 82.992 133.55 82.736C133.806 82.4587 134.211 82.32 134.766 82.32C135.32 82.32 135.715 82.4587 135.95 82.736C136.206 82.992 136.334 83.3333 136.334 83.76V84.176C136.334 84.6027 136.206 84.9547 135.95 85.232C135.715 85.488 135.32 85.616 134.766 85.616ZM133.486 89.488H136.046V106H133.486V89.488ZM155.406 107.824C155.406 109.531 154.734 110.779 153.39 111.568C152.067 112.379 150.072 112.784 147.406 112.784C144.824 112.784 142.968 112.432 141.838 111.728C140.707 111.024 140.142 110.021 140.142 108.72C140.142 107.824 140.376 107.12 140.846 106.608C141.315 106.117 141.955 105.755 142.766 105.52V105.168C141.784 104.699 141.294 103.931 141.294 102.864C141.294 102.032 141.56 101.403 142.094 100.976C142.627 100.528 143.31 100.197 144.142 99.984V99.856C143.16 99.3867 142.392 98.7147 141.838 97.84C141.304 96.9653 141.038 95.952 141.038 94.8C141.038 93.968 141.187 93.2 141.486 92.496C141.784 91.792 142.2 91.1947 142.734 90.704C143.288 90.192 143.939 89.7973 144.686 89.52C145.454 89.2427 146.307 89.104 147.246 89.104C148.419 89.104 149.464 89.3173 150.382 89.744V89.456C150.382 88.816 150.531 88.2933 150.83 87.888C151.128 87.4613 151.619 87.248 152.302 87.248H154.766V89.488H151.63V90.544C152.227 91.056 152.686 91.6747 153.006 92.4C153.347 93.104 153.518 93.904 153.518 94.8C153.518 95.632 153.368 96.4 153.07 97.104C152.771 97.808 152.344 98.416 151.79 98.928C151.256 99.4187 150.606 99.8027 149.838 100.08C149.07 100.357 148.216 100.496 147.278 100.496C146.744 100.496 146.211 100.443 145.678 100.336C145.123 100.485 144.622 100.709 144.174 101.008C143.726 101.285 143.502 101.68 143.502 102.192C143.502 102.683 143.736 103.013 144.206 103.184C144.675 103.355 145.283 103.44 146.03 103.44H149.55C151.598 103.44 153.08 103.835 153.998 104.624C154.936 105.392 155.406 106.459 155.406 107.824ZM153.006 108.016C153.006 107.355 152.75 106.821 152.238 106.416C151.747 106.032 150.862 105.84 149.582 105.84H144.078C143.054 106.309 142.542 107.056 142.542 108.08C142.542 108.805 142.808 109.424 143.342 109.936C143.896 110.448 144.824 110.704 146.126 110.704H148.494C149.923 110.704 151.032 110.48 151.822 110.032C152.611 109.584 153.006 108.912 153.006 108.016ZM147.278 98.448C148.366 98.448 149.23 98.192 149.87 97.68C150.51 97.1467 150.83 96.336 150.83 95.248V94.352C150.83 93.264 150.51 92.464 149.87 91.952C149.23 91.4187 148.366 91.152 147.278 91.152C146.19 91.152 145.326 91.4187 144.686 91.952C144.046 92.464 143.726 93.264 143.726 94.352V95.248C143.726 96.336 144.046 97.1467 144.686 97.68C145.326 98.192 146.19 98.448 147.278 98.448ZM158.392 106V89.488H160.952V92.176H161.08C161.485 91.2373 162.051 90.4907 162.776 89.936C163.523 89.3813 164.515 89.104 165.752 89.104C167.459 89.104 168.803 89.6587 169.784 90.768C170.787 91.856 171.288 93.4027 171.288 95.408V106H168.728V95.856C168.728 92.8907 167.48 91.408 164.984 91.408C164.472 91.408 163.971 91.472 163.48 91.6C163.011 91.728 162.584 91.92 162.2 92.176C161.816 92.432 161.507 92.7627 161.272 93.168C161.059 93.552 160.952 94.0107 160.952 94.544V106H158.392Z" fill="#074A3E"/>
</svg>
