<svg xmlns="http://www.w3.org/2000/svg" width="126" height="76" viewBox="0 0 126 76" fill="none">
  <path fill-rule="evenodd" clip-rule="evenodd" d="M68.04 0.690911C68.04 4.50669 64.9631 7.6 61.1675 7.6C57.3713 7.6 54.2944 4.50669 54.2944 0.690911C54.2944 0.457728 54.306 0.227245 54.3287 0H0V29.7091C3.7957 29.7091 6.87275 32.8024 6.87275 36.6182C6.87275 40.434 3.7957 43.5273 0 43.5273V76H54.2944C54.2944 72.1843 57.3713 69.0911 61.1675 69.0911C64.9631 69.0911 68.04 72.1843 68.04 76H125.771V43.5273C121.975 43.5273 118.898 40.434 118.898 36.6182C118.898 32.8024 121.975 29.7091 125.771 29.7091V0H68.0062C68.0284 0.227245 68.04 0.457728 68.04 0.690911Z" fill="#D7E4BD"/>
  <path d="M57.0268 34.4536L55.8979 31.1137H51.3498L50.2206 34.4536H48.8497L52.7852 23.1367H54.5109L58.4461 34.4536H57.0268ZM53.6561 24.4014H53.5754L51.6723 29.9139H55.5592L53.6561 24.4014ZM60.1819 26.0875H61.4721V27.4495H61.5366C61.7513 26.9198 62.0633 26.5307 62.472 26.2821C62.8914 26.0227 63.3913 25.893 63.9719 25.893C64.488 25.893 64.9558 25.9957 65.3751 26.201C65.7944 26.4064 66.1492 26.6982 66.4395 27.0766C66.7404 27.4549 66.9662 27.9142 67.1169 28.4547C67.2782 28.9952 67.3588 29.6004 67.3588 30.2706C67.3588 30.9408 67.2782 31.546 67.1169 32.0865C66.9662 32.6269 66.7404 33.0863 66.4395 33.4646C66.1492 33.8429 65.7944 34.1348 65.3751 34.3401C64.9558 34.5455 64.488 34.6482 63.9719 34.6482C62.843 34.6482 62.031 34.1294 61.5366 33.0917H61.4721V37.6963H60.1819V26.0875ZM63.6171 33.4808C64.3479 33.4808 64.9235 33.2538 65.3428 32.7999C65.7622 32.3351 65.9718 31.7298 65.9718 30.984V29.5572C65.9718 28.8114 65.7622 28.2115 65.3428 27.7575C64.9235 27.2928 64.3479 27.0603 63.6171 27.0603C63.3268 27.0603 63.0471 27.1036 62.7785 27.1901C62.5204 27.2657 62.2946 27.3738 62.1011 27.5143C61.9076 27.6548 61.7513 27.8278 61.6334 28.0331C61.5255 28.2277 61.4721 28.4385 61.4721 28.6655V31.7784C61.4721 32.0486 61.5255 32.2918 61.6334 32.508C61.7513 32.7134 61.9076 32.8917 62.1011 33.0431C62.2946 33.1836 62.5204 33.2917 62.7785 33.3673C63.0471 33.443 63.3268 33.4808 63.6171 33.4808ZM69.5371 26.0875H70.8274V27.4495H70.8919C71.1071 26.9198 71.4186 26.5307 71.8273 26.2821C72.2466 26.0227 72.7466 25.893 73.3272 25.893C73.8433 25.893 74.311 25.9957 74.7303 26.201C75.1497 26.4064 75.5045 26.6982 75.7948 27.0766C76.0957 27.4549 76.3215 27.9142 76.4722 28.4547C76.6334 28.9952 76.7141 29.6004 76.7141 30.2706C76.7141 30.9408 76.6334 31.546 76.4722 32.0865C76.3215 32.6269 76.0957 33.0863 75.7948 33.4646C75.5045 33.8429 75.1497 34.1348 74.7303 34.3401C74.311 34.5455 73.8433 34.6482 73.3272 34.6482C72.1982 34.6482 71.3863 34.1294 70.8919 33.0917H70.8274V37.6963H69.5371V26.0875ZM72.9724 33.4808C73.7037 33.4808 74.2788 33.2538 74.6981 32.7999C75.1174 32.3351 75.3271 31.7298 75.3271 30.984V29.5572C75.3271 28.8114 75.1174 28.2115 74.6981 27.7575C74.2788 27.2928 73.7037 27.0603 72.9724 27.0603C72.6821 27.0603 72.4024 27.1036 72.1337 27.1901C71.8757 27.2657 71.6499 27.3738 71.4563 27.5143C71.2628 27.6548 71.1071 27.8278 70.9886 28.0331C70.8813 28.2277 70.8274 28.4385 70.8274 28.6655V31.7784C70.8274 32.0486 70.8813 32.2918 70.9886 32.508C71.1071 32.7134 71.2628 32.8917 71.4563 33.0431C71.6499 33.1836 71.8757 33.2917 72.1337 33.3673C72.4024 33.443 72.6821 33.4808 72.9724 33.4808ZM39.875 42.3901H43.649C44.3478 42.3901 44.9822 42.509 45.5521 42.7467C46.1219 42.9845 46.6058 43.3412 47.0036 43.8168C47.4122 44.2816 47.724 44.8707 47.939 45.5841C48.1541 46.2867 48.2616 47.1081 48.2616 48.0485C48.2616 48.9889 48.1541 49.8158 47.939 50.5291C47.724 51.2319 47.4122 51.8206 47.0036 52.2964C46.6058 52.761 46.1219 53.1126 45.5521 53.3503C44.9822 53.5879 44.3478 53.707 43.649 53.707H39.875V42.3901ZM43.649 52.5072C44.1113 52.5072 44.536 52.4317 44.9231 52.2802C45.3101 52.118 45.6435 51.8855 45.923 51.583C46.2026 51.2805 46.4176 50.9127 46.5681 50.4805C46.7294 50.0373 46.81 49.5347 46.81 48.9727V47.1243C46.81 46.5623 46.7294 46.0651 46.5681 45.6327C46.4176 45.1895 46.2026 44.8166 45.923 44.514C45.6435 44.2114 45.3101 43.9844 44.9231 43.833C44.536 43.6709 44.1113 43.5898 43.649 43.5898H41.2298V52.5072H43.649ZM53.6949 53.9015C53.1254 53.9015 52.6093 53.7987 52.1466 53.5935C51.695 53.3883 51.3029 53.0964 50.9692 52.7179C50.6467 52.3288 50.3942 51.8693 50.2114 51.3398C50.0394 50.7992 49.9534 50.1941 49.9534 49.5239C49.9534 48.8646 50.0394 48.2647 50.2114 47.7242C50.3942 47.1838 50.6467 46.7244 50.9692 46.3461C51.3029 45.957 51.695 45.6597 52.1466 45.4544C52.6093 45.249 53.1254 45.1463 53.6949 45.1463C54.2543 45.1463 54.7543 45.249 55.1948 45.4544C55.6358 45.6597 56.0123 45.9462 56.3237 46.3137C56.6357 46.6704 56.8721 47.0973 57.0334 47.5945C57.2057 48.0917 57.2914 48.6376 57.2914 49.2321V49.8482H51.3079V50.2373C51.3079 50.594 51.3619 50.9289 51.4692 51.2425C51.5877 51.545 51.7489 51.81 51.9531 52.037C52.1683 52.264 52.4263 52.4423 52.7272 52.572C53.0392 52.7017 53.3884 52.7666 53.7755 52.7666C54.3027 52.7666 54.7593 52.6425 55.1464 52.3937C55.5446 52.1449 55.851 51.7882 56.0657 51.3236L56.985 51.9883C56.7164 52.5614 56.297 53.026 55.727 53.3827C55.1575 53.7287 54.4801 53.9015 53.6949 53.9015ZM53.6949 46.2326C53.3401 46.2326 53.0175 46.2975 52.7272 46.4272C52.4369 46.5461 52.1844 46.719 51.9692 46.946C51.7651 47.173 51.6038 47.4432 51.4853 47.7567C51.3674 48.0593 51.3079 48.3944 51.3079 48.7619V48.8754H55.9044V48.697C55.9044 47.9512 55.7003 47.3568 55.2916 46.9136C54.8939 46.4596 54.3617 46.2326 53.6949 46.2326ZM61.9176 53.9015C61.1435 53.9015 60.4928 53.7556 59.9662 53.4638C59.4501 53.1613 59.004 52.761 58.6275 52.264L59.5468 51.5182C59.8694 51.9291 60.2297 52.2478 60.6274 52.4747C61.0251 52.6911 61.4877 52.799 62.0144 52.799C62.5628 52.799 62.9876 52.6799 63.2885 52.4423C63.6005 52.2047 63.7562 51.8693 63.7562 51.4371C63.7562 51.1128 63.6489 50.8372 63.4337 50.6102C63.2296 50.3724 62.8531 50.2103 62.3047 50.1238L61.6435 50.0265C61.2564 49.9725 60.9016 49.8914 60.579 49.7833C60.2565 49.6644 59.9717 49.5131 59.7242 49.3294C59.4879 49.1348 59.2994 48.897 59.1598 48.616C59.0307 48.3349 58.9662 47.9999 58.9662 47.6107C58.9662 47.2 59.0413 46.8433 59.192 46.5407C59.3427 46.2272 59.5468 45.9678 59.8049 45.7624C60.0735 45.5571 60.391 45.4057 60.7564 45.3085C61.1218 45.2004 61.5144 45.1463 61.9338 45.1463C62.6111 45.1463 63.1756 45.2652 63.6272 45.503C64.0894 45.7408 64.4926 46.0705 64.8368 46.492L63.982 47.2703C63.7991 47.0108 63.5304 46.7784 63.1756 46.5731C62.8208 46.3569 62.3748 46.2488 61.837 46.2488C61.2992 46.2488 60.891 46.3677 60.6113 46.6055C60.3426 46.8325 60.2081 47.146 60.2081 47.5459C60.2081 47.9566 60.3426 48.2539 60.6113 48.4376C60.891 48.6214 61.2886 48.7565 61.8047 48.843L62.4499 48.9402C63.3747 49.0807 64.0304 49.351 64.4175 49.7509C64.8046 50.14 64.9981 50.6534 64.9981 51.2912C64.9981 52.1018 64.7239 52.7397 64.1756 53.2043C63.6272 53.669 62.8747 53.9015 61.9176 53.9015ZM67.9223 43.3791C67.6426 43.3791 67.4385 43.3142 67.3094 43.1845C67.191 43.044 67.132 42.8657 67.132 42.6495V42.4387C67.132 42.2225 67.191 42.0496 67.3094 41.9199C67.4385 41.7794 67.6426 41.7091 67.9223 41.7091C68.2015 41.7091 68.4006 41.7794 68.519 41.9199C68.6481 42.0496 68.7126 42.2225 68.7126 42.4387V42.6495C68.7126 42.8657 68.6481 43.044 68.519 43.1845C68.4006 43.3142 68.2015 43.3791 67.9223 43.3791ZM67.2772 45.3409H68.5674V53.707H67.2772V45.3409ZM78.3249 54.6311C78.3249 55.496 77.9862 56.1283 77.3088 56.5281C76.642 56.939 75.6365 57.1442 74.2929 57.1442C72.9915 57.1442 72.0561 56.9658 71.4866 56.6091C70.9166 56.2524 70.6318 55.7443 70.6318 55.0851C70.6318 54.6311 70.7497 54.2744 70.9866 54.015C71.223 53.7662 71.5456 53.5828 71.9543 53.4638V53.2854C71.4594 53.0478 71.2124 52.6587 71.2124 52.118C71.2124 51.6965 71.3465 51.3778 71.6156 51.1615C71.8842 50.9345 72.2285 50.7668 72.6478 50.6589V50.594C72.1529 50.3562 71.7658 50.0157 71.4866 49.5726C71.2174 49.1294 71.0834 48.616 71.0834 48.0323C71.0834 47.6107 71.1585 47.2216 71.3092 46.8649C71.4594 46.5082 71.669 46.2056 71.9382 45.957C72.2174 45.6976 72.5455 45.4976 72.922 45.3571C73.3091 45.2166 73.739 45.1463 74.2122 45.1463C74.8034 45.1463 75.3301 45.2544 75.7928 45.4706V45.3247C75.7928 45.0004 75.8679 44.7356 76.0186 44.5302C76.1687 44.314 76.4162 44.2059 76.7604 44.2059H78.0023V45.3409H76.4218V45.8759C76.7226 46.1353 76.954 46.4488 77.1153 46.8163C77.2871 47.173 77.3733 47.5783 77.3733 48.0323C77.3733 48.4538 77.2977 48.843 77.1475 49.1996C76.9968 49.5563 76.7816 49.8644 76.5024 50.1238C76.2333 50.3724 75.9057 50.567 75.5186 50.7075C75.1315 50.8478 74.7011 50.9183 74.2283 50.9183C73.9592 50.9183 73.6906 50.8914 73.4219 50.8372C73.1422 50.9127 72.8897 51.0262 72.6639 51.1777C72.4381 51.318 72.3252 51.5182 72.3252 51.7776C72.3252 52.0263 72.4432 52.1935 72.6801 52.2802C72.9164 52.3668 73.2229 52.4099 73.5994 52.4099H75.3734C76.4056 52.4099 77.1526 52.61 77.6152 53.0098C78.088 53.3989 78.3249 53.9395 78.3249 54.6311ZM77.1153 54.7284C77.1153 54.3935 76.9862 54.1229 76.7282 53.9177C76.4807 53.7232 76.0347 53.6259 75.3896 53.6259H72.6155C72.0995 53.8635 71.8414 54.242 71.8414 54.7608C71.8414 55.1282 71.9755 55.4418 72.2446 55.7012C72.5238 55.9606 72.9915 56.0903 73.6477 56.0903H74.8412C75.5614 56.0903 76.1204 55.9768 76.5185 55.7498C76.9162 55.5229 77.1153 55.1824 77.1153 54.7284ZM74.2283 49.8806C74.7767 49.8806 75.2122 49.7509 75.5347 49.4915C75.8573 49.2213 76.0186 48.8105 76.0186 48.2593V47.8053C76.0186 47.254 75.8573 46.8487 75.5347 46.5893C75.2122 46.3191 74.7767 46.184 74.2283 46.184C73.68 46.184 73.2445 46.3191 72.922 46.5893C72.5994 46.8487 72.4381 47.254 72.4381 47.8053V48.2593C72.4381 48.8105 72.5994 49.2213 72.922 49.4915C73.2445 49.7509 73.68 49.8806 74.2283 49.8806ZM79.8298 53.707V45.3409H81.12V46.7028H81.1846C81.3887 46.2272 81.6739 45.8489 82.0393 45.5679C82.4158 45.2868 82.9158 45.1463 83.5392 45.1463C84.3996 45.1463 85.0769 45.4274 85.5714 45.9894C86.0769 46.5407 86.3294 47.3243 86.3294 48.3403V53.707H85.0391V48.5673C85.0391 47.0649 84.4102 46.3137 83.1522 46.3137C82.8941 46.3137 82.6416 46.3461 82.3942 46.411C82.1578 46.4758 81.9426 46.5731 81.749 46.7028C81.5555 46.8325 81.3998 47.0001 81.2813 47.2054C81.174 47.4 81.12 47.6324 81.12 47.9026V53.707H79.8298Z" fill="#074A3E"/>
</svg>