<svg xmlns="http://www.w3.org/2000/svg" width="150" height="91" viewBox="0 0 150 91" fill="none">
  <path fill-rule="evenodd" clip-rule="evenodd" d="M1.69778 0C0.585692 5.1417 0 10.4797 0 15.9545C0 57.4008 33.5654 91 74.9707 91C116.376 91 149.941 57.4008 149.941 15.9545C149.941 10.4797 149.355 5.1417 148.243 0H1.69778Z" fill="#EDEA87"/>
  <path d="M49.9908 23.3913H54.2324C54.9991 23.3913 55.692 23.5173 56.3102 23.7694C56.9395 24.0216 57.4718 24.3997 57.9072 24.9039C58.3536 25.3967 58.6971 26.0212 58.9375 26.7775C59.1779 27.5223 59.2981 28.3932 59.2981 29.3902C59.2981 30.3872 59.1779 31.2638 58.9375 32.0201C58.6971 32.7649 58.3536 33.3895 57.9072 33.8937C57.4718 34.3865 56.9395 34.7588 56.3102 35.011C55.692 35.2631 54.9991 35.3891 54.2324 35.3891H49.9908V23.3913ZM54.2324 33.6702C55.1253 33.6702 55.8466 33.3895 56.3961 32.828C56.9455 32.2665 57.2203 31.4414 57.2203 30.3528V28.4276C57.2203 27.339 56.9455 26.5139 56.3961 25.9524C55.8466 25.3909 55.1253 25.1102 54.2324 25.1102H51.9314V33.6702H54.2324ZM65.0784 35.5954C64.437 35.5954 63.8647 35.4865 63.3612 35.2688C62.8572 35.0511 62.4279 34.7417 62.0733 34.3406C61.7183 33.9281 61.4435 33.4353 61.2491 32.8624C61.0658 32.2779 60.9743 31.6305 60.9743 30.92C60.9743 30.2096 61.0658 29.5678 61.2491 28.9949C61.4435 28.4104 61.7183 27.9177 62.0733 27.5166C62.4279 27.1041 62.8572 26.789 63.3612 26.5712C63.8647 26.3535 64.437 26.2446 65.0784 26.2446C65.7309 26.2446 66.3031 26.3592 66.7956 26.5884C67.2991 26.8176 67.7168 27.1385 68.0491 27.551C68.3809 27.952 68.6269 28.4219 68.7875 28.9605C68.9592 29.499 69.045 30.0778 69.045 30.6966V31.4013H62.9147V31.6935C62.9147 32.3811 63.1147 32.9483 63.5158 33.3952C63.9279 33.8306 64.5117 34.0484 65.2673 34.0484C65.8168 34.0484 66.2804 33.9281 66.6582 33.6874C67.036 33.4468 67.3562 33.1202 67.6198 32.7077L68.7188 33.7906C68.3865 34.3406 67.9056 34.7818 67.2764 35.1141C66.6466 35.435 65.9137 35.5954 65.0784 35.5954ZM65.0784 27.7057C64.7577 27.7057 64.4602 27.763 64.1854 27.8776C63.9218 27.9922 63.693 28.1526 63.4986 28.3589C63.3152 28.5651 63.1723 28.8115 63.0693 29.098C62.9663 29.3845 62.9147 29.6996 62.9147 30.0434V30.1637H67.0703V29.9918C67.0703 29.3043 66.8925 28.7542 66.538 28.3417C66.1829 27.9177 65.6966 27.7057 65.0784 27.7057ZM73.9501 35.5954C73.1031 35.5954 72.3935 35.4464 71.8208 35.1485C71.2486 34.8506 70.7506 34.438 70.3269 33.9109L71.5289 32.8108C71.8612 33.2118 72.2274 33.527 72.6279 33.7562C73.04 33.9739 73.5152 34.0828 74.0531 34.0828C74.6026 34.0828 75.0092 33.9796 75.2723 33.7734C75.5471 33.5556 75.6844 33.2577 75.6844 32.8795C75.6844 32.593 75.5875 32.3524 75.3925 32.1576C75.2097 31.9513 74.8834 31.8195 74.4137 31.7623L73.5895 31.6591C72.6738 31.5445 71.9526 31.281 71.4259 30.8684C70.9107 30.4444 70.6531 29.8199 70.6531 28.9949C70.6531 28.5594 70.7334 28.1755 70.8935 27.8432C71.0541 27.4994 71.2774 27.2129 71.5632 26.9838C71.8612 26.7431 72.2102 26.5597 72.6107 26.4337C73.0228 26.3077 73.4753 26.2446 73.9673 26.2446C74.7688 26.2446 75.4213 26.3707 75.9248 26.6228C76.44 26.8749 76.8981 27.2244 77.2986 27.6713L76.1481 28.7714C75.9193 28.4964 75.6157 28.2614 75.238 28.0667C74.8718 27.8604 74.4481 27.7573 73.9673 27.7573C73.4521 27.7573 73.0688 27.8604 72.8168 28.0667C72.5764 28.2729 72.4562 28.5422 72.4562 28.8745C72.4562 29.2183 72.5652 29.4761 72.7824 29.648C73.0001 29.8199 73.3491 29.946 73.8299 30.0262L74.6541 30.1293C75.639 30.2783 76.3541 30.5705 76.8006 31.006C77.2587 31.43 77.4875 32.0029 77.4875 32.7248C77.4875 33.1603 77.4016 33.5556 77.2299 33.9109C77.0698 34.2547 76.8349 34.5526 76.5258 34.8047C76.2168 35.0568 75.845 35.2516 75.4097 35.3891C74.9748 35.5266 74.4885 35.5954 73.9501 35.5954ZM80.5466 24.8523C80.1572 24.8523 79.8713 24.7607 79.688 24.5773C79.5163 24.3939 79.4304 24.1591 79.4304 23.8726V23.5804C79.4304 23.2939 79.5163 23.059 79.688 22.8756C79.8713 22.6922 80.1572 22.6006 80.5466 22.6006C80.9359 22.6006 81.2163 22.6922 81.388 22.8756C81.5597 23.059 81.6455 23.2939 81.6455 23.5804V23.8726C81.6455 24.1591 81.5597 24.3939 81.388 24.5773C81.2163 24.7607 80.9359 24.8523 80.5466 24.8523ZM79.6021 26.4509H81.4738V35.3891H79.6021V26.4509ZM91.9769 36.2314C91.9769 37.1596 91.6218 37.8586 90.9122 38.3284C90.2026 38.7982 89.0461 39.0332 87.4435 39.0332C86.7107 39.0332 86.087 38.9816 85.5718 38.8785C85.0683 38.7868 84.6501 38.6493 84.3183 38.4659C83.9976 38.2826 83.7632 38.0591 83.6142 37.7956C83.4652 37.532 83.391 37.2283 83.391 36.8846C83.391 36.3918 83.5228 36.0079 83.7859 35.7329C84.0607 35.4579 84.4385 35.2688 84.9193 35.1657V34.9766C84.244 34.7588 83.9062 34.3005 83.9062 33.6015C83.9062 33.1431 84.0607 32.7936 84.3698 32.553C84.6789 32.3008 85.0511 32.1232 85.4859 32.0201V31.9513C84.9592 31.6992 84.5531 31.3497 84.2668 30.9028C83.992 30.4444 83.8546 29.9116 83.8546 29.3043C83.8546 28.3875 84.1582 27.6484 84.7647 27.0869C85.3829 26.5254 86.2642 26.2446 87.4092 26.2446C88.039 26.2446 88.5769 26.3363 89.0233 26.5197V26.279C89.0233 25.878 89.1147 25.5686 89.2981 25.3508C89.4925 25.1216 89.7905 25.007 90.191 25.007H91.5647V26.5197H89.7445V26.8806C90.145 27.1442 90.4541 27.4879 90.6718 27.912C90.8895 28.3245 90.9981 28.7886 90.9981 29.3043C90.9981 30.2096 90.689 30.9429 90.0708 31.5044C89.4526 32.0545 88.5713 32.3295 87.4264 32.3295C86.9915 32.3295 86.6021 32.2836 86.2587 32.192C86.0299 32.2722 85.8294 32.3868 85.6577 32.5358C85.486 32.6733 85.4001 32.8566 85.4001 33.0858C85.4001 33.3265 85.5087 33.4983 85.7264 33.6015C85.944 33.7046 86.2531 33.7562 86.6536 33.7562H88.8516C89.9506 33.7562 90.746 33.9796 91.2385 34.4265C91.7309 34.862 91.9769 35.4636 91.9769 36.2314ZM90.2253 36.4376C90.2253 36.1282 90.1051 35.8819 89.8647 35.6985C89.636 35.5152 89.2122 35.4235 88.594 35.4235H85.5718C85.1597 35.6641 84.9536 36.0079 84.9536 36.4548C84.9536 36.8215 85.0966 37.1137 85.3829 37.3315C85.6804 37.5606 86.1784 37.6752 86.8769 37.6752H88.0445C89.4986 37.6752 90.2253 37.2627 90.2253 36.4376ZM87.4264 30.9716C87.9759 30.9716 88.3996 30.8513 88.6971 30.6106C89.0061 30.3585 89.1607 29.9746 89.1607 29.459V29.1152C89.1607 28.5995 89.0061 28.2214 88.6971 27.9807C88.3996 27.7286 87.9759 27.6026 87.4264 27.6026C86.8769 27.6026 86.4476 27.7286 86.1385 27.9807C85.841 28.2214 85.692 28.5995 85.692 29.1152V29.459C85.692 29.9746 85.841 30.3585 86.1385 30.6106C86.4476 30.8513 86.8769 30.9716 87.4264 30.9716ZM93.3698 35.3891V26.4509H95.2415V27.9291H95.3274C95.5218 27.4479 95.8137 27.0468 96.2031 26.7259C96.6036 26.405 97.1476 26.2446 97.8344 26.2446C98.7501 26.2446 99.4597 26.5483 99.9637 27.1556C100.479 27.7515 100.736 28.6052 100.736 29.7168V35.3891H98.8647V29.9574C98.8647 28.5594 98.3036 27.8604 97.1819 27.8604C96.9415 27.8604 96.7011 27.8948 96.4607 27.9635C96.2314 28.0208 96.0253 28.1125 95.8425 28.2385C95.6592 28.3646 95.5102 28.525 95.3961 28.7198C95.293 28.9146 95.2415 29.1438 95.2415 29.4074V35.3891H93.3698ZM51.3117 56.3232C50.4645 56.3232 49.7548 56.174 49.1824 55.8763C48.61 55.5785 48.112 55.1659 47.6885 54.6387L48.8905 53.5386C49.2225 53.9395 49.5888 54.2549 49.9895 54.484C50.4016 54.7018 50.8769 54.8105 51.4147 54.8105C51.9642 54.8105 52.3708 54.7074 52.6339 54.5011C52.9087 54.2832 53.0461 53.9855 53.0461 53.6073C53.0461 53.3207 52.9486 53.08 52.7541 52.8854C52.5708 52.6791 52.2445 52.5472 51.7753 52.49L50.9511 52.3869C50.0352 52.2722 49.314 52.0088 48.7875 51.5962C48.2723 51.1721 48.0147 50.5477 48.0147 49.7226C48.0147 49.2872 48.0948 48.9033 48.2551 48.571C48.4154 48.2272 48.6386 47.9407 48.9248 47.7115C49.2225 47.4709 49.5716 47.2875 49.9723 47.1615C50.3844 47.0355 50.8365 46.9724 51.3289 46.9724C52.1304 46.9724 52.7829 47.0984 53.2865 47.3506C53.8016 47.6027 54.2597 47.9522 54.6602 48.3991L53.5097 49.4992C53.2809 49.2242 52.9774 48.9892 52.5996 48.7944C52.2334 48.5882 51.8097 48.485 51.3289 48.485C50.8137 48.485 50.4302 48.5882 50.1784 48.7944C49.938 49.0007 49.8178 49.27 49.8178 49.6023C49.8178 49.9461 49.9265 50.2039 50.144 50.3758C50.3615 50.5477 50.7107 50.6736 51.1915 50.754L52.0157 50.8571C53.0001 51.0062 53.7157 51.2985 54.1622 51.7337C54.6203 52.1579 54.8491 52.7307 54.8491 53.4526C54.8491 53.8879 54.7632 54.2832 54.5915 54.6387C54.4314 54.9824 54.1966 55.2802 53.8875 55.5325C53.5784 55.7847 53.2062 55.9794 52.7713 56.1169C52.3365 56.2544 51.8496 56.3232 51.3117 56.3232ZM62.2067 47.1787H64.0097L60.2491 57.8874C60.1461 58.1851 60.0259 58.4374 59.8885 58.6437C59.7627 58.8616 59.6082 59.0334 59.4248 59.1593C59.2531 59.2968 59.0415 59.3944 58.7895 59.4515C58.5375 59.5203 58.24 59.5547 57.8966 59.5547H56.8147V58.0249H58.3259L58.841 56.5122L55.5956 47.1787H57.4673L59.2531 52.4385L59.7683 54.3808H59.8541L60.4208 52.4385L62.2067 47.1787ZM68.2824 56.3232C67.4349 56.3232 66.7253 56.174 66.1531 55.8763C65.5804 55.5785 65.0824 55.1659 64.6592 54.6387L65.8612 53.5386C66.193 53.9395 66.5592 54.2549 66.9602 54.484C67.3723 54.7018 67.8471 54.8105 68.3854 54.8105C68.9349 54.8105 69.341 54.7074 69.6046 54.5011C69.8794 54.2832 70.0168 53.9855 70.0168 53.6073C70.0168 53.3207 69.9193 53.08 69.7248 52.8854C69.5415 52.6791 69.2152 52.5472 68.7461 52.49L67.9218 52.3869C67.0056 52.2722 66.2844 52.0088 65.7582 51.5962C65.243 51.1721 64.9855 50.5477 64.9855 49.7226C64.9855 49.2872 65.0652 48.9033 65.2259 48.571C65.386 48.2272 65.6092 47.9407 65.8956 47.7115C66.193 47.4709 66.542 47.2875 66.943 47.1615C67.3551 47.0355 67.8072 46.9724 68.2996 46.9724C69.1006 46.9724 69.7531 47.0984 70.2572 47.3506C70.7723 47.6027 71.2299 47.9522 71.6309 48.3991L70.4804 49.4992C70.2511 49.2242 69.9481 48.9892 69.5703 48.7944C69.2036 48.5882 68.7804 48.485 68.2996 48.485C67.7844 48.485 67.4006 48.5882 67.1491 48.7944C66.9087 49.0007 66.7885 49.27 66.7885 49.6023C66.7885 49.9461 66.8971 50.2039 67.1147 50.3758C67.3319 50.5477 67.6814 50.6736 68.1622 50.754L68.9865 50.8571C69.9708 51.0062 70.6865 51.2985 71.1329 51.7337C71.5905 52.1579 71.8198 52.7307 71.8198 53.4526C71.8198 53.8879 71.7339 54.2832 71.5622 54.6387C71.4016 54.9824 71.1673 55.2802 70.8582 55.5325C70.5491 55.7847 70.1769 55.9794 69.742 56.1169C69.3067 56.2544 68.8203 56.3232 68.2824 56.3232ZM76.2895 56.1169C75.637 56.1169 75.1445 55.9506 74.8127 55.6184C74.4809 55.2746 74.3147 54.7934 74.3147 54.1746V48.7085H72.9238V47.1787H73.6794C73.9885 47.1787 74.2001 47.1099 74.3147 46.9724C74.4405 46.8349 74.5036 46.6114 74.5036 46.302V44.7379H76.1865V47.1787H78.0582V48.7085H76.1865V54.5871H77.9208V56.1169H76.2895ZM83.5243 56.3232C82.8834 56.3232 82.3107 56.2145 81.8072 55.9966C81.3036 55.7787 80.8743 55.4693 80.5193 55.0684C80.1642 54.6558 79.8895 54.1629 79.695 53.5901C79.5117 53.0057 79.4203 52.3581 79.4203 51.6478C79.4203 50.9375 79.5117 50.2956 79.695 49.7226C79.8895 49.1382 80.1642 48.6454 80.5193 48.2444C80.8743 47.8319 81.3036 47.5167 81.8072 47.299C82.3107 47.0813 82.8834 46.9724 83.5243 46.9724C84.1769 46.9724 84.7491 47.087 85.2415 47.3162C85.745 47.5454 86.1632 47.8662 86.495 48.2788C86.8269 48.6798 87.0733 49.1497 87.2334 49.6883C87.4051 50.2268 87.491 50.8055 87.491 51.4243V52.1291H81.3607V52.4213C81.3607 53.1088 81.5612 53.6761 81.9617 54.123C82.3738 54.5583 82.9577 54.7762 83.7132 54.7762C84.2627 54.7762 84.7264 54.6558 85.1041 54.4152C85.4819 54.1746 85.8026 53.848 86.0658 53.4354L87.1647 54.5183C86.8329 55.0684 86.3521 55.5097 85.7223 55.8419C85.0925 56.1629 84.3602 56.3232 83.5243 56.3232ZM83.5243 48.4335C83.2036 48.4335 82.9062 48.4907 82.6314 48.6054C82.3683 48.72 82.139 48.8804 81.9445 49.0866C81.7612 49.2929 81.6183 49.5393 81.5152 49.8258C81.4122 50.1123 81.3607 50.4274 81.3607 50.7712V50.8915H85.5163V50.7196C85.5163 50.032 85.339 49.482 84.9839 49.0695C84.6289 48.6454 84.1425 48.4335 83.5243 48.4335ZM89.5632 56.1169V47.1787H91.4349V48.6569H91.5208C91.6122 48.4278 91.7208 48.21 91.8471 48.0037C91.9844 47.7975 92.1445 47.6199 92.3279 47.4709C92.5223 47.3105 92.7455 47.1902 92.9976 47.1099C93.2607 47.0183 93.5642 46.9724 93.9077 46.9724C94.5142 46.9724 95.0521 47.1214 95.5218 47.4193C95.991 47.7172 96.3344 48.1756 96.5521 48.7944H96.6036C96.7637 48.2902 97.0728 47.8605 97.5309 47.5053C97.9885 47.15 98.5784 46.9724 99.2996 46.9724C100.193 46.9724 100.885 47.2761 101.377 47.8834C101.869 48.4793 102.116 49.333 102.116 50.4446V56.1169H100.244V50.668C100.244 49.9805 100.112 49.4648 99.8491 49.121C99.5854 48.7658 99.1678 48.5882 98.5955 48.5882C98.3551 48.5882 98.1258 48.6225 97.9087 48.6913C97.691 48.7486 97.4966 48.8403 97.3248 48.9663C97.1642 49.0924 97.0329 49.2528 96.9299 49.4476C96.8269 49.6424 96.7753 49.8659 96.7753 50.118V56.1169H94.9036V50.668C94.9036 49.2814 94.3597 48.5882 93.2723 48.5882C93.043 48.5882 92.8142 48.6225 92.5854 48.6913C92.3678 48.7486 92.1733 48.8403 92.0016 48.9663C91.8299 49.0924 91.6925 49.2528 91.5895 49.4476C91.4865 49.6424 91.4349 49.8659 91.4349 50.118V56.1169H89.5632Z" fill="#B0B060"/>
</svg>