<svg width="297" height="180" viewBox="0 0 297 180" fill="none" xmlns="http://www.w3.org/2000/svg">
<path fill-rule="evenodd" clipRule="evenodd" d="M3.3616 0C1.15967 10.1704 0 20.729 0 31.5584C0 113.54 66.4595 180 148.442 180C230.424 180 296.883 113.54 296.883 31.5584C296.883 20.729 295.723 10.1704 293.522 0H3.3616Z" fill="#F2EF9E"/>
<path d="M98.9816 46.268H107.38C108.898 46.268 110.27 46.5173 111.494 47.016C112.74 47.5147 113.794 48.2627 114.656 49.26C115.54 50.2347 116.22 51.47 116.696 52.966C117.172 54.4393 117.41 56.162 117.41 58.134C117.41 60.106 117.172 61.84 116.696 63.336C116.22 64.8093 115.54 66.0447 114.656 67.042C113.794 68.0167 112.74 68.7533 111.494 69.252C110.27 69.7507 108.898 70 107.38 70H98.9816V46.268ZM107.38 66.6C109.148 66.6 110.576 66.0447 111.664 64.934C112.752 63.8233 113.296 62.1913 113.296 60.038V56.23C113.296 54.0767 112.752 52.4447 111.664 51.334C110.576 50.2233 109.148 49.668 107.38 49.668H102.824V66.6H107.38ZM128.855 70.408C127.585 70.408 126.452 70.1927 125.455 69.762C124.457 69.3313 123.607 68.7193 122.905 67.926C122.202 67.11 121.658 66.1353 121.273 65.002C120.91 63.846 120.729 62.5653 120.729 61.16C120.729 59.7547 120.91 58.4853 121.273 57.352C121.658 56.196 122.202 55.2213 122.905 54.428C123.607 53.612 124.457 52.9887 125.455 52.558C126.452 52.1273 127.585 51.912 128.855 51.912C130.147 51.912 131.28 52.1387 132.255 52.592C133.252 53.0453 134.079 53.68 134.737 54.496C135.394 55.2893 135.881 56.2187 136.199 57.284C136.539 58.3493 136.709 59.494 136.709 60.718V62.112H124.571V62.69C124.571 64.05 124.967 65.172 125.761 66.056C126.577 66.9173 127.733 67.348 129.229 67.348C130.317 67.348 131.235 67.11 131.983 66.634C132.731 66.158 133.365 65.512 133.887 64.696L136.063 66.838C135.405 67.926 134.453 68.7987 133.207 69.456C131.96 70.0907 130.509 70.408 128.855 70.408ZM128.855 54.802C128.22 54.802 127.631 54.9153 127.087 55.142C126.565 55.3687 126.112 55.686 125.727 56.094C125.364 56.502 125.081 56.9893 124.877 57.556C124.673 58.1227 124.571 58.746 124.571 59.426V59.664H132.799V59.324C132.799 57.964 132.447 56.876 131.745 56.06C131.042 55.2213 130.079 54.802 128.855 54.802ZM146.421 70.408C144.744 70.408 143.339 70.1133 142.205 69.524C141.072 68.9347 140.086 68.1187 139.247 67.076L141.627 64.9C142.285 65.6933 143.01 66.3167 143.803 66.77C144.619 67.2007 145.56 67.416 146.625 67.416C147.713 67.416 148.518 67.212 149.039 66.804C149.583 66.3733 149.855 65.784 149.855 65.036C149.855 64.4693 149.663 63.9933 149.277 63.608C148.915 63.2 148.269 62.9393 147.339 62.826L145.707 62.622C143.894 62.3953 142.466 61.874 141.423 61.058C140.403 60.2193 139.893 58.984 139.893 57.352C139.893 56.4907 140.052 55.7313 140.369 55.074C140.687 54.394 141.129 53.8273 141.695 53.374C142.285 52.898 142.976 52.5353 143.769 52.286C144.585 52.0367 145.481 51.912 146.455 51.912C148.042 51.912 149.334 52.1613 150.331 52.66C151.351 53.1587 152.258 53.85 153.051 54.734L150.773 56.91C150.32 56.366 149.719 55.9013 148.971 55.516C148.246 55.108 147.407 54.904 146.455 54.904C145.435 54.904 144.676 55.108 144.177 55.516C143.701 55.924 143.463 56.4567 143.463 57.114C143.463 57.794 143.679 58.304 144.109 58.644C144.54 58.984 145.231 59.2333 146.183 59.392L147.815 59.596C149.765 59.8907 151.181 60.4687 152.065 61.33C152.972 62.1687 153.425 63.302 153.425 64.73C153.425 65.5913 153.255 66.3733 152.915 67.076C152.598 67.756 152.133 68.3453 151.521 68.844C150.909 69.3427 150.173 69.728 149.311 70C148.45 70.272 147.487 70.408 146.421 70.408ZM159.482 49.158C158.711 49.158 158.145 48.9767 157.782 48.614C157.442 48.2513 157.272 47.7867 157.272 47.22V46.642C157.272 46.0753 157.442 45.6107 157.782 45.248C158.145 44.8853 158.711 44.704 159.482 44.704C160.253 44.704 160.808 44.8853 161.148 45.248C161.488 45.6107 161.658 46.0753 161.658 46.642V47.22C161.658 47.7867 161.488 48.2513 161.148 48.614C160.808 48.9767 160.253 49.158 159.482 49.158ZM157.612 52.32H161.318V70H157.612V52.32ZM182.114 71.666C182.114 73.502 181.411 74.8847 180.006 75.814C178.601 76.7433 176.311 77.208 173.138 77.208C171.687 77.208 170.452 77.106 169.432 76.902C168.435 76.7207 167.607 76.4487 166.95 76.086C166.315 75.7233 165.851 75.2813 165.556 74.76C165.261 74.2387 165.114 73.638 165.114 72.958C165.114 71.9833 165.375 71.224 165.896 70.68C166.44 70.136 167.188 69.762 168.14 69.558V69.184C166.803 68.7533 166.134 67.8467 166.134 66.464C166.134 65.5573 166.44 64.866 167.052 64.39C167.664 63.8913 168.401 63.54 169.262 63.336V63.2C168.219 62.7013 167.415 62.01 166.848 61.126C166.304 60.2193 166.032 59.1653 166.032 57.964C166.032 56.1507 166.633 54.6887 167.834 53.578C169.058 52.4673 170.803 51.912 173.07 51.912C174.317 51.912 175.382 52.0933 176.266 52.456V51.98C176.266 51.1867 176.447 50.5747 176.81 50.144C177.195 49.6907 177.785 49.464 178.578 49.464H181.298V52.456H177.694V53.17C178.487 53.6913 179.099 54.3713 179.53 55.21C179.961 56.026 180.176 56.944 180.176 57.964C180.176 59.7547 179.564 61.2053 178.34 62.316C177.116 63.404 175.371 63.948 173.104 63.948C172.243 63.948 171.472 63.8573 170.792 63.676C170.339 63.8347 169.942 64.0613 169.602 64.356C169.262 64.628 169.092 64.9907 169.092 65.444C169.092 65.92 169.307 66.26 169.738 66.464C170.169 66.668 170.781 66.77 171.574 66.77H175.926C178.102 66.77 179.677 67.212 180.652 68.096C181.627 68.9573 182.114 70.1473 182.114 71.666ZM178.646 72.074C178.646 71.462 178.408 70.9747 177.932 70.612C177.479 70.2493 176.64 70.068 175.416 70.068H169.432C168.616 70.544 168.208 71.224 168.208 72.108C168.208 72.8333 168.491 73.4113 169.058 73.842C169.647 74.2953 170.633 74.522 172.016 74.522H174.328C177.207 74.522 178.646 73.706 178.646 72.074ZM173.104 61.262C174.192 61.262 175.031 61.024 175.62 60.548C176.232 60.0493 176.538 59.29 176.538 58.27V57.59C176.538 56.57 176.232 55.822 175.62 55.346C175.031 54.8473 174.192 54.598 173.104 54.598C172.016 54.598 171.166 54.8473 170.554 55.346C169.965 55.822 169.67 56.57 169.67 57.59V58.27C169.67 59.29 169.965 60.0493 170.554 60.548C171.166 61.024 172.016 61.262 173.104 61.262ZM184.872 70V52.32H188.578V55.244H188.748C189.133 54.292 189.711 53.4987 190.482 52.864C191.275 52.2293 192.352 51.912 193.712 51.912C195.525 51.912 196.93 52.5127 197.928 53.714C198.948 54.8927 199.458 56.5813 199.458 58.78V70H195.752V59.256C195.752 56.4907 194.641 55.108 192.42 55.108C191.944 55.108 191.468 55.176 190.992 55.312C190.538 55.4253 190.13 55.6067 189.768 55.856C189.405 56.1053 189.11 56.4227 188.884 56.808C188.68 57.1933 188.578 57.6467 188.578 58.168V70H184.872ZM101.597 111.408C99.9196 111.408 98.5143 111.113 97.381 110.524C96.2476 109.935 95.2616 109.119 94.423 108.076L96.803 105.9C97.4603 106.693 98.1856 107.317 98.979 107.77C99.795 108.201 100.736 108.416 101.801 108.416C102.889 108.416 103.694 108.212 104.215 107.804C104.759 107.373 105.031 106.784 105.031 106.036C105.031 105.469 104.838 104.993 104.453 104.608C104.09 104.2 103.444 103.939 102.515 103.826L100.883 103.622C99.0696 103.395 97.6416 102.874 96.599 102.058C95.579 101.219 95.069 99.984 95.069 98.352C95.069 97.4907 95.2276 96.7313 95.545 96.074C95.8623 95.394 96.3043 94.8273 96.871 94.374C97.4603 93.898 98.1516 93.5353 98.945 93.286C99.761 93.0367 100.656 92.912 101.631 92.912C103.218 92.912 104.51 93.1613 105.507 93.66C106.527 94.1587 107.434 94.85 108.227 95.734L105.949 97.91C105.496 97.366 104.895 96.9013 104.147 96.516C103.422 96.108 102.583 95.904 101.631 95.904C100.611 95.904 99.8516 96.108 99.353 96.516C98.877 96.924 98.639 97.4567 98.639 98.114C98.639 98.794 98.8543 99.304 99.285 99.644C99.7156 99.984 100.407 100.233 101.359 100.392L102.991 100.596C104.94 100.891 106.357 101.469 107.241 102.33C108.148 103.169 108.601 104.302 108.601 105.73C108.601 106.591 108.431 107.373 108.091 108.076C107.774 108.756 107.309 109.345 106.697 109.844C106.085 110.343 105.348 110.728 104.487 111C103.626 111.272 102.662 111.408 101.597 111.408ZM123.169 93.32H126.739L119.293 114.502C119.089 115.091 118.851 115.59 118.579 115.998C118.33 116.429 118.024 116.769 117.661 117.018C117.321 117.29 116.902 117.483 116.403 117.596C115.904 117.732 115.315 117.8 114.635 117.8H112.493V114.774H115.485L116.505 111.782L110.079 93.32H113.785L117.321 103.724L118.341 107.566H118.511L119.633 103.724L123.169 93.32ZM135.199 111.408C133.521 111.408 132.116 111.113 130.983 110.524C129.849 109.935 128.863 109.119 128.025 108.076L130.405 105.9C131.062 106.693 131.787 107.317 132.581 107.77C133.397 108.201 134.337 108.416 135.403 108.416C136.491 108.416 137.295 108.212 137.817 107.804C138.361 107.373 138.633 106.784 138.633 106.036C138.633 105.469 138.44 104.993 138.055 104.608C137.692 104.2 137.046 103.939 136.117 103.826L134.485 103.622C132.671 103.395 131.243 102.874 130.201 102.058C129.181 101.219 128.671 99.984 128.671 98.352C128.671 97.4907 128.829 96.7313 129.147 96.074C129.464 95.394 129.906 94.8273 130.473 94.374C131.062 93.898 131.753 93.5353 132.547 93.286C133.363 93.0367 134.258 92.912 135.233 92.912C136.819 92.912 138.111 93.1613 139.109 93.66C140.129 94.1587 141.035 94.85 141.829 95.734L139.551 97.91C139.097 97.366 138.497 96.9013 137.749 96.516C137.023 96.108 136.185 95.904 135.233 95.904C134.213 95.904 133.453 96.108 132.955 96.516C132.479 96.924 132.241 97.4567 132.241 98.114C132.241 98.794 132.456 99.304 132.887 99.644C133.317 99.984 134.009 100.233 134.961 100.392L136.593 100.596C138.542 100.891 139.959 101.469 140.843 102.33C141.749 103.169 142.203 104.302 142.203 105.73C142.203 106.591 142.033 107.373 141.693 108.076C141.375 108.756 140.911 109.345 140.299 109.844C139.687 110.343 138.95 110.728 138.089 111C137.227 111.272 136.264 111.408 135.199 111.408ZM151.053 111C149.761 111 148.786 110.671 148.129 110.014C147.472 109.334 147.143 108.382 147.143 107.158V96.346H144.389V93.32H145.885C146.497 93.32 146.916 93.184 147.143 92.912C147.392 92.64 147.517 92.198 147.517 91.586V88.492H150.849V93.32H154.555V96.346H150.849V107.974H154.283V111H151.053ZM165.378 111.408C164.109 111.408 162.975 111.193 161.978 110.762C160.981 110.331 160.131 109.719 159.428 108.926C158.725 108.11 158.181 107.135 157.796 106.002C157.433 104.846 157.252 103.565 157.252 102.16C157.252 100.755 157.433 99.4853 157.796 98.352C158.181 97.196 158.725 96.2213 159.428 95.428C160.131 94.612 160.981 93.9887 161.978 93.558C162.975 93.1273 164.109 92.912 165.378 92.912C166.67 92.912 167.803 93.1387 168.778 93.592C169.775 94.0453 170.603 94.68 171.26 95.496C171.917 96.2893 172.405 97.2187 172.722 98.284C173.062 99.3493 173.232 100.494 173.232 101.718V103.112H161.094V103.69C161.094 105.05 161.491 106.172 162.284 107.056C163.1 107.917 164.256 108.348 165.752 108.348C166.84 108.348 167.758 108.11 168.506 107.634C169.254 107.158 169.889 106.512 170.41 105.696L172.586 107.838C171.929 108.926 170.977 109.799 169.73 110.456C168.483 111.091 167.033 111.408 165.378 111.408ZM165.378 95.802C164.743 95.802 164.154 95.9153 163.61 96.142C163.089 96.3687 162.635 96.686 162.25 97.094C161.887 97.502 161.604 97.9893 161.4 98.556C161.196 99.1227 161.094 99.746 161.094 100.426V100.664H169.322V100.324C169.322 98.964 168.971 97.876 168.268 97.06C167.565 96.2213 166.602 95.802 165.378 95.802ZM177.335 111V93.32H181.041V96.244H181.211C181.392 95.7907 181.607 95.36 181.857 94.952C182.129 94.544 182.446 94.1927 182.809 93.898C183.194 93.5807 183.636 93.3427 184.135 93.184C184.656 93.0027 185.257 92.912 185.937 92.912C187.138 92.912 188.203 93.2067 189.133 93.796C190.062 94.3853 190.742 95.292 191.173 96.516H191.275C191.592 95.5187 192.204 94.6687 193.111 93.966C194.017 93.2633 195.185 92.912 196.613 92.912C198.381 92.912 199.752 93.5127 200.727 94.714C201.701 95.8927 202.189 97.5813 202.189 99.78V111H198.483V100.222C198.483 98.862 198.222 97.842 197.701 97.162C197.179 96.4593 196.352 96.108 195.219 96.108C194.743 96.108 194.289 96.176 193.859 96.312C193.428 96.4253 193.043 96.6067 192.703 96.856C192.385 97.1053 192.125 97.4227 191.921 97.808C191.717 98.1933 191.615 98.6353 191.615 99.134V111H187.909V100.222C187.909 97.4793 186.832 96.108 184.679 96.108C184.225 96.108 183.772 96.176 183.319 96.312C182.888 96.4253 182.503 96.6067 182.163 96.856C181.823 97.1053 181.551 97.4227 181.347 97.808C181.143 98.1933 181.041 98.6353 181.041 99.134V111H177.335Z" fill="#B0B060"/>
</svg>
