<svg xmlns="http://www.w3.org/2000/svg" width="115" height="120" viewBox="0 0 115 120" fill="none">
  <g clip-path="url(#clip0_282_774)">
    <rect width="115" height="120" rx="12" fill="#FFF4CC"/>
    <path fill-rule="evenodd" clip-rule="evenodd" d="M76.0843 66.8157C92.0075 64.2937 106.641 52.5919 113.161 35.2161C113.754 33.6369 114.265 32.049 114.697 30.4577L33.6658 0.0820312C32.9442 1.56486 32.2846 3.0972 31.692 4.6764C25.1712 22.0524 28.4959 40.4858 38.8319 52.8511C22.9091 55.3731 8.27553 67.0749 1.7548 84.4506C1.16217 86.0299 0.65087 87.6177 0.21875 89.2091L81.2507 119.585C81.9721 118.102 82.6317 116.57 83.2244 114.99C89.745 97.6147 86.4206 79.1813 76.0843 66.8157Z" fill="#C2B4D9"/>
    <g filter="url(#filter0_i_282_774)">
      <path d="M61.026 18.8649L59.3471 23.3393C59.2346 23.6383 59.1399 23.912 59.0628 24.1606C58.9919 24.4118 58.9661 24.6399 58.9843 24.845C59.0051 25.0432 59.0821 25.2188 59.2153 25.3718C59.3481 25.5248 59.5608 25.656 59.8532 25.7655C60.145 25.8751 60.3917 25.916 60.5928 25.8881C60.7934 25.8603 60.9672 25.7787 61.1131 25.6431C61.262 25.5005 61.3887 25.3102 61.4941 25.0721C61.6065 24.8365 61.7185 24.5692 61.8304 24.2703L63.5099 19.7959L64.6786 20.234L63.0777 24.4998C62.8822 25.0213 62.6785 25.4685 62.4673 25.8413C62.2656 26.2098 62.028 26.4936 61.755 26.6926C61.4844 26.8847 61.1643 26.9868 60.7949 26.999C60.4322 27.0137 59.997 26.9259 59.4889 26.7355C58.9813 26.5451 58.5922 26.3239 58.3217 26.0718C58.0582 25.8224 57.8875 25.5364 57.81 25.2139C57.7355 24.8845 57.7401 24.5134 57.8232 24.1005C57.9164 23.6834 58.0608 23.214 58.2563 22.6925L59.8572 18.4268L61.026 18.8649ZM65.7567 29.085C65.1725 28.8659 64.7029 28.583 64.3493 28.2362C64.0023 27.892 63.7586 27.5152 63.6188 27.1058L64.553 26.7421C64.6928 27.088 64.8828 27.3853 65.1229 27.6339C65.3721 27.8781 65.6989 28.0759 66.1022 28.2272C66.471 28.3654 66.7901 28.4136 67.0597 28.3719C67.3363 28.3328 67.5242 28.1812 67.6235 27.917C67.6651 27.8057 67.6797 27.704 67.6666 27.6119C67.6534 27.5198 67.6179 27.435 67.5597 27.3576C67.5014 27.2803 67.4254 27.2082 67.3312 27.1412C67.2446 27.0769 67.1478 27.0169 67.0419 26.9613L66.2369 26.5049C66.0388 26.3989 65.8433 26.2741 65.6513 26.1307C65.4588 25.9873 65.2967 25.8274 65.1644 25.6509C65.0418 25.4701 64.9588 25.2685 64.9157 25.0459C64.8792 24.826 64.9132 24.577 65.0175 24.2989C65.2237 23.7496 65.589 23.4107 66.1133 23.282C66.6447 23.1561 67.2547 23.2221 67.9432 23.4803C68.4442 23.6681 68.847 23.9063 69.1514 24.1949C69.465 24.4791 69.694 24.799 69.8384 25.1545L68.9513 25.5833C68.8723 25.3713 68.7289 25.1509 68.5212 24.9223C68.316 24.6868 68.0009 24.4894 67.5769 24.3304C66.8185 24.0461 66.3494 24.1438 66.169 24.6236C66.0829 24.8531 66.1032 25.043 66.2293 25.1933C66.3646 25.3394 66.5389 25.468 66.7511 25.5793L67.5556 26.0357C67.7583 26.1513 67.9538 26.276 68.1413 26.4098C68.3363 26.5464 68.4949 26.705 68.6175 26.8857C68.7497 27.0622 68.8338 27.2604 68.8708 27.4803C68.9138 27.7028 68.8834 27.9531 68.7791 28.2313C68.5754 28.7736 68.2031 29.1216 67.661 29.2755C67.1291 29.4249 66.4943 29.3614 65.7567 29.085ZM72.1181 31.4697C71.7078 31.3159 71.3638 31.1116 71.0867 30.8569C70.8091 30.6022 70.6049 30.3115 70.4732 29.9847C70.342 29.6578 70.2812 29.3019 70.2908 28.9169C70.303 28.5249 70.3901 28.1133 70.5517 27.6823C70.7138 27.2512 70.919 26.8839 71.1677 26.5806C71.4231 26.2799 71.7047 26.0483 72.0118 25.8857C72.3284 25.7189 72.6678 25.6281 73.0305 25.6133C73.3933 25.5986 73.7656 25.6629 74.1481 25.8064C74.524 25.9472 74.8401 26.141 75.0965 26.3879C75.3559 26.6278 75.5489 26.9064 75.676 27.2236C75.8027 27.5409 75.8604 27.8838 75.8493 28.2523C75.8447 28.6234 75.7682 29.0072 75.6198 29.4035L75.4592 29.8311L71.5979 28.3837L71.5315 28.561C71.3724 28.9852 71.3739 29.3824 71.5365 29.7526C71.7017 30.116 72.0173 30.385 72.4834 30.5597C72.8314 30.6901 73.1547 30.728 73.4525 30.6732C73.7606 30.6142 74.0382 30.4881 74.2849 30.2952L74.7596 31.187C74.4617 31.4321 74.0843 31.592 73.6273 31.6667C73.178 31.744 72.6749 31.6784 72.1181 31.4697ZM73.8234 26.672C73.6217 26.5964 73.4206 26.5607 73.221 26.5651C73.028 26.572 72.8436 26.6181 72.6688 26.7033C72.5037 26.7841 72.3537 26.8984 72.219 27.0461C72.0842 27.1938 71.9778 27.372 71.8993 27.5806L71.8719 27.6536L74.5747 28.6668L74.6137 28.5625C74.7733 28.1384 74.7778 27.7555 74.6284 27.4139C74.4886 27.068 74.22 26.8207 73.8234 26.672ZM76.3144 31.853L77.744 32.389L79.0749 28.8429L77.6452 28.3069L77.9897 27.3891L80.5567 28.3514L80.0207 29.7803L80.083 29.8038C80.2026 29.6343 80.3399 29.4796 80.4954 29.3397C80.6514 29.1997 80.8222 29.0933 81.0081 29.0203C81.1971 28.9403 81.4063 28.8999 81.6368 28.8991C81.8698 28.8913 82.1221 28.9382 82.3937 29.0399L83.0406 29.2825L82.6333 30.3672L81.5689 29.9681C81.1515 29.8117 80.7639 29.809 80.4052 29.9602C80.0496 30.1045 79.7938 30.3852 79.6372 30.8024L78.8819 32.8154L80.8333 33.5469L80.4888 34.4647L75.9699 32.7709L76.3144 31.853Z" fill="#1F2529"/>
    </g>
    <g filter="url(#filter1_i_282_774)">
      <path d="M40.902 34.0589L39.7437 33.6247L42.4756 26.3447L45.1993 27.3657C45.895 27.6265 46.3507 28.0194 46.5663 28.5444C46.7889 29.072 46.7723 29.6765 46.5166 30.3579C46.3079 30.9141 46 31.3222 45.593 31.582C45.186 31.8419 44.7129 31.9184 44.1737 31.8114L44.7109 35.4868L43.4169 35.0017L42.9762 31.4815L42.0057 31.1177L40.902 34.0589ZM43.7563 30.7032C44.4799 30.9744 44.9656 30.7798 45.2135 30.1192L45.3818 29.6708C45.6297 29.0102 45.3918 28.5443 44.6683 28.2731L43.2699 27.7489L42.358 30.1791L43.7563 30.7032ZM48.3228 36.9834C47.9123 36.8295 47.5684 36.6253 47.2909 36.3706C47.0136 36.1159 46.8092 35.8252 46.6779 35.4983C46.5466 35.1716 46.4857 34.8156 46.4954 34.4306C46.5075 34.0386 46.5946 33.6271 46.7563 33.196C46.9181 32.7648 47.1234 32.3976 47.3721 32.0943C47.6278 31.7936 47.9091 31.562 48.2161 31.3995C48.5327 31.2326 48.8723 31.1418 49.235 31.1271C49.5976 31.1123 49.9702 31.1766 50.3528 31.3201C50.7286 31.4609 51.0448 31.6548 51.3011 31.9016C51.5605 32.1415 51.7535 32.4201 51.8802 32.7373C52.0073 33.0546 52.0651 33.3975 52.0539 33.766C52.0494 34.1371 51.9729 34.5209 51.8239 34.9172L51.6638 35.3448L47.8025 33.8974L47.7359 34.0748C47.5768 34.4989 47.5784 34.8961 47.7411 35.2663C47.9063 35.6297 48.2219 35.8987 48.6881 36.0734C49.0359 36.2038 49.359 36.2416 49.6573 36.1869C49.9651 36.1278 50.2425 36.0018 50.4896 35.8089L50.9642 36.7007C50.6658 36.9457 50.2886 37.1056 49.832 37.1804C49.3824 37.2577 48.8793 37.1921 48.3228 36.9834ZM50.028 32.1857C49.8262 32.1101 49.6253 32.0744 49.4253 32.0788C49.2323 32.0857 49.0483 32.1318 48.8735 32.2169C48.7083 32.2978 48.5583 32.4121 48.4235 32.5598C48.2887 32.7076 48.1821 32.8857 48.1039 33.0943L48.0764 33.1674L50.7793 34.1805L50.8183 34.0762C50.9774 33.6521 50.9824 33.2692 50.833 32.9276C50.6927 32.5817 50.4245 32.3344 50.028 32.1857ZM54.4755 39.2899C53.8914 39.0709 53.4223 38.7879 53.0682 38.4411C52.7211 38.0969 52.478 37.7201 52.3376 37.3107L53.2718 36.947C53.4116 37.2929 53.6016 37.5902 53.8417 37.8388C54.0915 38.0831 54.4178 38.2808 54.8215 38.4321C55.1903 38.5702 55.5095 38.6185 55.779 38.5768C56.0556 38.5377 56.2431 38.386 56.3424 38.1218C56.3839 38.0106 56.3986 37.9089 56.3854 37.8168C56.3722 37.7246 56.3368 37.6399 56.2785 37.5625C56.2203 37.4852 56.1443 37.413 56.05 37.3461C55.9634 37.2818 55.8667 37.2218 55.7608 37.1661L54.9558 36.7098C54.7577 36.6038 54.5621 36.479 54.3701 36.3356C54.1781 36.1922 54.016 36.0322 53.8838 35.8558C53.7612 35.675 53.6781 35.4733 53.6345 35.2509C53.5981 35.031 53.632 34.7819 53.7364 34.5038C53.9426 33.9545 54.3078 33.6155 54.8322 33.4869C55.3636 33.3609 55.9735 33.427 56.662 33.6852C57.1631 33.873 57.5658 34.1112 57.8703 34.3997C58.1839 34.684 58.4134 35.0038 58.5578 35.3593L57.6707 35.7882C57.5911 35.5761 57.4478 35.3558 57.2401 35.1272C57.0349 34.8916 56.7198 34.6943 56.2958 34.5352C55.5374 34.251 55.0682 34.3487 54.8879 34.8285C54.8018 35.0579 54.822 35.2479 54.9482 35.3982C55.0839 35.5443 55.2577 35.6729 55.47 35.7842L56.2745 36.2405C56.4771 36.3561 56.6727 36.4809 56.8601 36.6148C57.0552 36.7512 57.2137 36.9098 57.3363 37.0907C57.4685 37.2671 57.5532 37.4653 57.5896 37.6852C57.6332 37.9077 57.6023 38.158 57.4979 38.4361C57.2948 38.9785 56.9219 39.3265 56.3804 39.4804C55.8479 39.6298 55.2131 39.5663 54.4755 39.2899ZM60.837 41.6746C60.4266 41.5207 60.0826 41.3165 59.8055 41.0618C59.5279 40.8071 59.3237 40.5164 59.1925 40.1895C59.0613 39.8627 59 39.5068 59.0097 39.1217C59.0218 38.7297 59.1089 38.3182 59.2706 37.8871C59.4327 37.456 59.6378 37.0888 59.8866 36.7855C60.1424 36.4848 60.4236 36.2531 60.7306 36.0907C61.0472 35.9238 61.3867 35.833 61.7494 35.8182C62.1121 35.8035 62.4845 35.8678 62.8675 36.0113C63.2429 36.1521 63.559 36.3459 63.8158 36.5928C64.0747 36.8327 64.2677 37.1113 64.3949 37.4285C64.5215 37.7457 64.5793 38.0886 64.5682 38.4572C64.5636 38.8283 64.4871 39.212 64.3387 39.6084L64.1781 40.036L60.3167 38.5886L60.2503 38.7659C60.0913 39.19 60.0928 39.5873 60.2554 39.9575C60.4206 40.3208 60.7362 40.5899 61.2028 40.7646C61.5503 40.895 61.8735 40.9328 62.1719 40.8781C62.4794 40.819 62.757 40.693 63.0043 40.5001L63.4789 41.3919C63.1806 41.6369 62.8031 41.7968 62.3467 41.8716C61.8968 41.9489 61.3937 41.8833 60.837 41.6746ZM62.5422 36.8769C62.3406 36.8013 62.14 36.7656 61.9399 36.7699C61.7469 36.7769 61.563 36.823 61.3882 36.9081C61.2225 36.9889 61.0726 37.1033 60.9378 37.251C60.803 37.3988 60.6967 37.5769 60.6181 37.7855L60.5908 37.8585L63.2935 38.8717L63.333 38.7674C63.4921 38.3433 63.4967 37.9604 63.3472 37.6188C63.2074 37.2728 62.9389 37.0255 62.5422 36.8769ZM69.0304 44.6031C68.7031 44.4805 68.4878 44.3045 68.3834 44.075C68.2856 43.8482 68.2704 43.5926 68.3378 43.3084L68.2856 43.2889C68.0587 43.5765 67.7719 43.7586 67.4259 43.8351C67.0865 43.9141 66.705 43.8741 66.2805 43.7151C65.7308 43.509 65.3463 43.2022 65.1259 42.7945C64.9086 42.38 64.8954 41.9189 65.0859 41.4113C65.2815 40.8898 65.6214 40.5652 66.1057 40.4374C66.5996 40.3053 67.2471 40.3892 68.047 40.6892L69.08 41.0764L69.2365 40.6593C69.5106 39.9292 69.2614 39.4194 68.4893 39.1299C68.1413 38.9995 67.8337 38.9634 67.5658 39.0216C67.3003 39.0729 67.0531 39.1824 66.8236 39.3501L66.3524 38.5431C66.6154 38.3084 66.9664 38.1546 67.4067 38.0816C67.8494 38.0017 68.3555 38.0686 68.9265 38.2825C69.6079 38.5381 70.0826 38.9023 70.3496 39.3751C70.6165 39.848 70.6338 40.3938 70.4012 41.0126L69.3875 43.7139L70.0659 43.9682L69.7295 44.8652L69.0304 44.6031ZM66.9173 43.0019C67.2856 43.1402 67.62 43.1702 67.9189 43.092C68.2183 43.0137 68.4174 42.8425 68.5167 42.5783L68.81 41.7961L67.7978 41.4166C66.9766 41.1089 66.4735 41.2019 66.2886 41.6956L66.2101 41.9042C66.1189 42.1475 66.1366 42.3644 66.2638 42.5548C66.393 42.7381 66.6108 42.8872 66.9173 43.0019ZM71.2908 44.4035L72.7205 44.9395L74.0513 41.3933L72.6217 40.8574L72.9657 39.9396L75.5332 40.9019L74.9967 42.3308L75.0595 42.3542C75.1785 42.1848 75.3158 42.03 75.4719 41.8901C75.6274 41.7502 75.7981 41.6438 75.9846 41.5708C76.173 41.4908 76.3828 41.4504 76.6133 41.4495C76.8463 41.4417 77.0986 41.4887 77.3696 41.5904L78.0166 41.8329L77.6098 42.9176L76.5454 42.5186C76.1279 42.3621 75.7399 42.3595 75.3817 42.5107C75.0261 42.655 74.7697 42.9357 74.6132 43.3529L73.8578 45.3658L75.8093 46.0973L75.4648 47.0152L70.9464 45.3213L71.2908 44.4035ZM79.6924 48.7427C79.2887 48.5914 78.9518 48.3897 78.6812 48.1376C78.4178 47.8882 78.2207 47.6001 78.0895 47.2732C77.9649 46.949 77.9087 46.591 77.9213 46.199C77.9401 45.8095 78.0308 45.3993 78.1924 44.9682C78.3545 44.5371 78.5561 44.1686 78.7978 43.8627C79.0465 43.5594 79.3246 43.3264 79.6316 43.1639C79.9452 43.004 80.2836 42.9167 80.6464 42.9019C81.0157 42.8898 81.3992 42.958 81.7954 43.1067C82.3521 43.3153 82.7528 43.6004 82.998 43.962C83.2503 44.3262 83.3896 44.7273 83.4155 45.1654L82.3486 45.3127C82.345 45.0258 82.27 44.7716 82.1226 44.5499C81.9828 44.3309 81.7563 44.1627 81.4433 44.0453C81.0121 43.8837 80.6286 43.8906 80.2928 44.0661C79.9594 44.2348 79.7122 44.5346 79.5506 44.9657L79.2137 45.8627C79.0546 46.2868 79.044 46.6753 79.1813 47.0282C79.3185 47.3811 79.6098 47.641 80.0552 47.8079C80.389 47.9331 80.6889 47.9583 80.9554 47.8836C81.2285 47.8115 81.4772 47.6668 81.7011 47.4494L82.3445 48.2735C82.0294 48.5838 81.6489 48.794 81.2031 48.9044C80.7593 49.0078 80.2558 48.9539 79.6924 48.7427ZM86.4404 42.3258L87.5783 42.7522L86.3569 46.0062L86.409 46.0258C86.5169 45.9076 86.636 45.8016 86.7667 45.7077C86.9065 45.6095 87.056 45.5387 87.215 45.4953C87.3772 45.4448 87.5519 45.4231 87.7399 45.4301C87.9273 45.437 88.1325 45.4822 88.3554 45.5657C88.898 45.7691 89.2698 46.1108 89.4705 46.5905C89.6716 47.0703 89.6493 47.637 89.4041 48.2906L88.1046 51.7531L86.9673 51.3268L88.2039 48.0311C88.5246 47.1759 88.3134 46.6087 87.5687 46.3296C87.4228 46.2749 87.2723 46.2423 87.1173 46.2319C86.9653 46.2145 86.8189 46.2232 86.6791 46.2579C86.5392 46.2927 86.4121 46.3561 86.2981 46.4482C86.1912 46.543 86.1091 46.6668 86.0519 46.8198L84.6815 50.4702L83.5442 50.0438L86.4404 42.3258Z" fill="#1F2529"/>
    </g>
    <g filter="url(#filter2_i_282_774)">
      <path d="M47.6923 82.9063L47.0757 81.966L49.1174 80.724L47.184 79.324L47.8994 78.4329L49.7037 79.9918L50.4495 77.7275L51.512 78.126L50.5841 80.322L52.969 80.3336L52.9214 81.4749L50.5442 81.2587L51.2653 83.5361L50.1816 83.8394L49.6372 81.5073L47.6923 82.9063Z" fill="#1F2529"/>
    </g>
  </g>
  <defs>
    <filter id="filter0_i_282_774" x="57.7573" y="18.4268" width="25.2832" height="18.0381" filterUnits="userSpaceOnUse" color-interpolation-filters="sRGB">
      <feFlood flood-opacity="0" result="BackgroundImageFix"/>
      <feBlend mode="normal" in="SourceGraphic" in2="BackgroundImageFix" result="shape"/>
      <feColorMatrix in="SourceAlpha" type="matrix" values="0 0 0 0 0 0 0 0 0 0 0 0 0 0 0 0 0 0 127 0" result="hardAlpha"/>
      <feOffset dy="2"/>
      <feGaussianBlur stdDeviation="1"/>
      <feComposite in2="hardAlpha" operator="arithmetic" k2="-1" k3="1"/>
      <feColorMatrix type="matrix" values="0 0 0 0 0 0 0 0 0 0 0 0 0 0 0 0 0 0 0.25 0"/>
      <feBlend mode="normal" in2="shape" result="effect1_innerShadow_282_774"/>
    </filter>
    <filter id="filter1_i_282_774" x="39.7437" y="26.3447" width="49.8628" height="27.4082" filterUnits="userSpaceOnUse" color-interpolation-filters="sRGB">
      <feFlood flood-opacity="0" result="BackgroundImageFix"/>
      <feBlend mode="normal" in="SourceGraphic" in2="BackgroundImageFix" result="shape"/>
      <feColorMatrix in="SourceAlpha" type="matrix" values="0 0 0 0 0 0 0 0 0 0 0 0 0 0 0 0 0 0 127 0" result="hardAlpha"/>
      <feOffset dy="2"/>
      <feGaussianBlur stdDeviation="1"/>
      <feComposite in2="hardAlpha" operator="arithmetic" k2="-1" k3="1"/>
      <feColorMatrix type="matrix" values="0 0 0 0 0 0 0 0 0 0 0 0 0 0 0 0 0 0 0.25 0"/>
      <feBlend mode="normal" in2="shape" result="effect1_innerShadow_282_774"/>
    </filter>
    <filter id="filter2_i_282_774" x="47.0757" y="77.7275" width="5.89355" height="8.1123" filterUnits="userSpaceOnUse" color-interpolation-filters="sRGB">
      <feFlood flood-opacity="0" result="BackgroundImageFix"/>
      <feBlend mode="normal" in="SourceGraphic" in2="BackgroundImageFix" result="shape"/>
      <feColorMatrix in="SourceAlpha" type="matrix" values="0 0 0 0 0 0 0 0 0 0 0 0 0 0 0 0 0 0 127 0" result="hardAlpha"/>
      <feOffset dy="2"/>
      <feGaussianBlur stdDeviation="1"/>
      <feComposite in2="hardAlpha" operator="arithmetic" k2="-1" k3="1"/>
      <feColorMatrix type="matrix" values="0 0 0 0 0 0 0 0 0 0 0 0 0 0 0 0 0 0 0.25 0"/>
      <feBlend mode="normal" in2="shape" result="effect1_innerShadow_282_774"/>
    </filter>
    <clipPath id="clip0_282_774">
      <rect width="115" height="120" rx="12" fill="white"/>
    </clipPath>
  </defs>
</svg>