<svg width="172" height="188" viewBox="0 0 172 188" fill="none" xmlns="http://www.w3.org/2000/svg">
<path fill-rule="evenodd" clip-rule="evenodd" d="M125.144 94C152.823 78.2987 171.753 46.5161 171.753 9.8642C171.753 6.5331 171.597 3.24223 171.292 0H0.461435C0.156359 3.24223 0 6.5331 0 9.8642C0 46.5161 18.9297 78.2987 46.6089 94C18.9297 109.701 0 141.484 0 178.136C0 181.467 0.156372 184.758 0.461441 188H171.292C171.597 184.758 171.753 181.467 171.753 178.136C171.753 141.484 152.823 109.701 125.144 94Z" fill="#C2B4D9"/>
<g filter="url(#filter0_i_171_42)">
<path d="M64.0559 15.7675V25.2055C64.0559 25.8362 64.0706 26.4082 64.0999 26.9215C64.1439 27.4349 64.2539 27.8749 64.4299 28.2415C64.6059 28.5935 64.8699 28.8649 65.2219 29.0555C65.5739 29.2462 66.0579 29.3415 66.6739 29.3415C67.2899 29.3415 67.7739 29.2462 68.1259 29.0555C68.4779 28.8649 68.7419 28.5935 68.9179 28.2415C69.0939 27.8749 69.1966 27.4349 69.2259 26.9215C69.2699 26.4082 69.2919 25.8362 69.2919 25.2055V15.7675H71.7559V24.7655C71.7559 25.8655 71.6899 26.8335 71.5579 27.6695C71.4406 28.4909 71.1986 29.1802 70.8319 29.7375C70.4652 30.2802 69.9446 30.6909 69.2699 30.9695C68.6099 31.2482 67.7446 31.3875 66.6739 31.3875C65.6032 31.3875 64.7306 31.2482 64.0559 30.9695C63.3959 30.6909 62.8826 30.2802 62.5159 29.7375C62.1492 29.1802 61.8999 28.4909 61.7679 27.6695C61.6506 26.8335 61.5919 25.8655 61.5919 24.7655V15.7675H64.0559ZM79.8873 31.3875C78.6553 31.3875 77.592 31.1895 76.6973 30.7935C75.8173 30.3975 75.106 29.8695 74.5633 29.2095L76.0373 27.8895C76.536 28.4322 77.0933 28.8502 77.7093 29.1435C78.34 29.4222 79.0806 29.5615 79.9313 29.5615C80.7086 29.5615 81.332 29.4295 81.8013 29.1655C82.2853 28.9015 82.5273 28.4909 82.5273 27.9335C82.5273 27.6989 82.4833 27.5009 82.3953 27.3395C82.3073 27.1782 82.1826 27.0462 82.0213 26.9435C81.86 26.8409 81.6693 26.7602 81.4493 26.7015C81.244 26.6429 81.024 26.5989 80.7893 26.5695L78.9853 26.2835C78.5453 26.2249 78.098 26.1295 77.6433 25.9975C77.1886 25.8655 76.778 25.6822 76.4113 25.4475C76.0593 25.1982 75.766 24.8829 75.5313 24.5015C75.3113 24.1202 75.2013 23.6362 75.2013 23.0495C75.2013 21.8909 75.6413 21.0109 76.5213 20.4095C77.416 19.8082 78.5893 19.5075 80.0413 19.5075C81.0973 19.5075 82.0066 19.6689 82.7693 19.9915C83.5466 20.2995 84.192 20.7322 84.7053 21.2895L83.3633 22.6975C83.07 22.3602 82.652 22.0522 82.1093 21.7735C81.5666 21.4802 80.848 21.3335 79.9533 21.3335C78.3546 21.3335 77.5553 21.8395 77.5553 22.8515C77.5553 23.3355 77.724 23.6729 78.0613 23.8635C78.4133 24.0395 78.824 24.1569 79.2933 24.2155L81.0973 24.5015C81.552 24.5749 81.9993 24.6702 82.4393 24.7875C82.894 24.9049 83.2973 25.0882 83.6493 25.3375C84.016 25.5722 84.3093 25.8802 84.5293 26.2615C84.764 26.6429 84.8813 27.1269 84.8813 27.7135C84.8813 28.8575 84.434 29.7595 83.5393 30.4195C82.6593 31.0649 81.442 31.3875 79.8873 31.3875ZM93.2987 31.3875C92.4334 31.3875 91.656 31.2482 90.9667 30.9695C90.2774 30.6909 89.698 30.2949 89.2287 29.7815C88.7594 29.2682 88.4 28.6522 88.1507 27.9335C87.9014 27.2002 87.7767 26.3789 87.7767 25.4695C87.7767 24.5602 87.9014 23.7389 88.1507 23.0055C88.4147 22.2722 88.774 21.6489 89.2287 21.1355C89.698 20.6075 90.2627 20.2042 90.9227 19.9255C91.5827 19.6469 92.316 19.5075 93.1227 19.5075C93.9147 19.5075 94.6334 19.6469 95.2787 19.9255C95.924 20.1895 96.474 20.5709 96.9287 21.0695C97.3834 21.5682 97.728 22.1622 97.9627 22.8515C98.212 23.5409 98.3367 24.3035 98.3367 25.1395V26.0415H90.1967V26.4155C90.1967 27.3102 90.4754 28.0435 91.0327 28.6155C91.59 29.1729 92.36 29.4515 93.3427 29.4515C94.076 29.4515 94.6994 29.2975 95.2127 28.9895C95.7407 28.6669 96.166 28.2415 96.4887 27.7135L97.9847 29.0335C97.6034 29.6935 97.0167 30.2509 96.2247 30.7055C95.4474 31.1602 94.472 31.3875 93.2987 31.3875ZM93.1227 21.3335C92.6974 21.3335 92.3014 21.4069 91.9347 21.5535C91.5827 21.7002 91.2747 21.9129 91.0107 22.1915C90.7614 22.4555 90.5634 22.7709 90.4167 23.1375C90.27 23.5042 90.1967 23.9075 90.1967 24.3475V24.5015H95.8947V24.2815C95.8947 23.3869 95.638 22.6755 95.1247 22.1475C94.626 21.6049 93.9587 21.3335 93.1227 21.3335ZM101.32 29.1875H104.334V21.7075H101.32V19.7715H106.732V22.7855H106.864C106.967 22.3895 107.113 22.0082 107.304 21.6415C107.495 21.2749 107.737 20.9595 108.03 20.6955C108.323 20.4169 108.683 20.1969 109.108 20.0355C109.533 19.8595 110.032 19.7715 110.604 19.7715H111.968V22.0595H109.724C108.844 22.0595 108.125 22.3235 107.568 22.8515C107.011 23.3649 106.732 24.0615 106.732 24.9415V29.1875H110.846V31.1235H101.32V29.1875Z" fill="black"/>
</g>
<g filter="url(#filter1_i_171_42)">
<path d="M37.4012 57.8147H34.9592V42.4587H40.7012C42.1678 42.4587 43.2825 42.8694 44.0452 43.6907C44.8225 44.512 45.2112 45.6414 45.2112 47.0787C45.2112 48.252 44.9252 49.22 44.3532 49.9827C43.7812 50.7454 42.9598 51.2147 41.8892 51.3907L45.4312 57.8147H42.7032L39.4472 51.6107H37.4012V57.8147ZM40.3492 49.6307C41.8745 49.6307 42.6372 48.934 42.6372 47.5407V46.5947C42.6372 45.2014 41.8745 44.5047 40.3492 44.5047H37.4012V49.6307H40.3492ZM53.1446 58.0787C52.2792 58.0787 51.5019 57.9394 50.8126 57.6607C50.1232 57.382 49.5439 56.986 49.0746 56.4727C48.6052 55.9594 48.2459 55.3434 47.9966 54.6247C47.7472 53.8914 47.6226 53.07 47.6226 52.1607C47.6226 51.2514 47.7472 50.43 47.9966 49.6967C48.2606 48.9634 48.6199 48.34 49.0746 47.8267C49.5439 47.2987 50.1086 46.8954 50.7686 46.6167C51.4286 46.338 52.1619 46.1987 52.9686 46.1987C53.7606 46.1987 54.4792 46.338 55.1246 46.6167C55.7699 46.8807 56.3199 47.262 56.7746 47.7607C57.2292 48.2594 57.5739 48.8534 57.8086 49.5427C58.0579 50.232 58.1826 50.9947 58.1826 51.8307V52.7327H50.0426V53.1067C50.0426 54.0014 50.3212 54.7347 50.8786 55.3067C51.4359 55.864 52.2059 56.1427 53.1886 56.1427C53.9219 56.1427 54.5452 55.9887 55.0586 55.6807C55.5866 55.358 56.0119 54.9327 56.3346 54.4047L57.8306 55.7247C57.4492 56.3847 56.8626 56.942 56.0706 57.3967C55.2932 57.8514 54.3179 58.0787 53.1446 58.0787ZM52.9686 48.0247C52.5432 48.0247 52.1472 48.098 51.7806 48.2447C51.4286 48.3914 51.1206 48.604 50.8566 48.8827C50.6072 49.1467 50.4092 49.462 50.2626 49.8287C50.1159 50.1954 50.0426 50.5987 50.0426 51.0387V51.1927H55.7406V50.9727C55.7406 50.078 55.4839 49.3667 54.9706 48.8387C54.4719 48.296 53.8046 48.0247 52.9686 48.0247ZM66.116 58.0787C64.884 58.0787 63.8206 57.8807 62.926 57.4847C62.046 57.0887 61.3346 56.5607 60.792 55.9007L62.266 54.5807C62.7646 55.1234 63.322 55.5414 63.938 55.8347C64.5686 56.1134 65.3093 56.2527 66.16 56.2527C66.9373 56.2527 67.5606 56.1207 68.03 55.8567C68.514 55.5927 68.756 55.182 68.756 54.6247C68.756 54.39 68.712 54.192 68.624 54.0307C68.536 53.8694 68.4113 53.7374 68.25 53.6347C68.0886 53.532 67.898 53.4514 67.678 53.3927C67.4726 53.334 67.2526 53.29 67.018 53.2607L65.214 52.9747C64.774 52.916 64.3266 52.8207 63.872 52.6887C63.4173 52.5567 63.0066 52.3734 62.64 52.1387C62.288 51.8894 61.9946 51.574 61.76 51.1927C61.54 50.8114 61.43 50.3274 61.43 49.7407C61.43 48.582 61.87 47.702 62.75 47.1007C63.6446 46.4994 64.818 46.1987 66.27 46.1987C67.326 46.1987 68.2353 46.36 68.998 46.6827C69.7753 46.9907 70.4206 47.4234 70.934 47.9807L69.592 49.3887C69.2986 49.0514 68.8806 48.7434 68.338 48.4647C67.7953 48.1714 67.0766 48.0247 66.182 48.0247C64.5833 48.0247 63.784 48.5307 63.784 49.5427C63.784 50.0267 63.9526 50.364 64.29 50.5547C64.642 50.7307 65.0526 50.848 65.522 50.9067L67.326 51.1927C67.7806 51.266 68.228 51.3614 68.668 51.4787C69.1226 51.596 69.526 51.7794 69.878 52.0287C70.2446 52.2634 70.538 52.5714 70.758 52.9527C70.9926 53.334 71.11 53.818 71.11 54.4047C71.11 55.5487 70.6626 56.4507 69.768 57.1107C68.888 57.756 67.6706 58.0787 66.116 58.0787ZM79.5274 58.0787C78.662 58.0787 77.8847 57.9394 77.1954 57.6607C76.506 57.382 75.9267 56.986 75.4574 56.4727C74.988 55.9594 74.6287 55.3434 74.3794 54.6247C74.13 53.8914 74.0054 53.07 74.0054 52.1607C74.0054 51.2514 74.13 50.43 74.3794 49.6967C74.6434 48.9634 75.0027 48.34 75.4574 47.8267C75.9267 47.2987 76.4914 46.8954 77.1514 46.6167C77.8114 46.338 78.5447 46.1987 79.3514 46.1987C80.1434 46.1987 80.862 46.338 81.5074 46.6167C82.1527 46.8807 82.7027 47.262 83.1574 47.7607C83.612 48.2594 83.9567 48.8534 84.1914 49.5427C84.4407 50.232 84.5654 50.9947 84.5654 51.8307V52.7327H76.4254V53.1067C76.4254 54.0014 76.704 54.7347 77.2614 55.3067C77.8187 55.864 78.5887 56.1427 79.5714 56.1427C80.3047 56.1427 80.928 55.9887 81.4414 55.6807C81.9694 55.358 82.3947 54.9327 82.7174 54.4047L84.2134 55.7247C83.832 56.3847 83.2454 56.942 82.4534 57.3967C81.676 57.8514 80.7007 58.0787 79.5274 58.0787ZM79.3514 48.0247C78.926 48.0247 78.53 48.098 78.1634 48.2447C77.8114 48.3914 77.5034 48.604 77.2394 48.8827C76.99 49.1467 76.792 49.462 76.6454 49.8287C76.4987 50.1954 76.4254 50.5987 76.4254 51.0387V51.1927H82.1234V50.9727C82.1234 50.078 81.8667 49.3667 81.3534 48.8387C80.8547 48.296 80.1874 48.0247 79.3514 48.0247ZM96.7008 57.8147C96.0114 57.8147 95.4908 57.6387 95.1388 57.2867C94.8014 56.9347 94.5961 56.4727 94.5228 55.9007H94.4128C94.1928 56.59 93.7894 57.1254 93.2028 57.5067C92.6308 57.888 91.8974 58.0787 91.0028 58.0787C89.8441 58.0787 88.9201 57.778 88.2308 57.1767C87.5414 56.5607 87.1968 55.7174 87.1968 54.6467C87.1968 53.5467 87.6001 52.7107 88.4068 52.1387C89.2281 51.552 90.4821 51.2587 92.1688 51.2587H94.3468V50.3787C94.3468 48.8387 93.5328 48.0687 91.9048 48.0687C91.1714 48.0687 90.5774 48.2154 90.1228 48.5087C89.6681 48.7874 89.2868 49.1614 88.9788 49.6307L87.5488 48.4647C87.8714 47.8487 88.4141 47.3207 89.1768 46.8807C89.9394 46.426 90.9221 46.1987 92.1248 46.1987C93.5621 46.1987 94.6914 46.5434 95.5128 47.2327C96.3341 47.922 96.7448 48.9194 96.7448 50.2247V55.9227H98.1748V57.8147H96.7008ZM91.6848 56.3187C92.4621 56.3187 93.1001 56.1427 93.5988 55.7907C94.0974 55.4387 94.3468 54.984 94.3468 54.4267V52.7767H92.2128C90.4821 52.7767 89.6168 53.2974 89.6168 54.3387V54.7787C89.6168 55.292 89.8001 55.6807 90.1668 55.9447C90.5334 56.194 91.0394 56.3187 91.6848 56.3187ZM100.74 55.8787H103.754V48.3987H100.74V46.4627H106.152V49.4767H106.284C106.387 49.0807 106.534 48.6994 106.724 48.3327C106.915 47.966 107.157 47.6507 107.45 47.3867C107.744 47.108 108.103 46.888 108.528 46.7267C108.954 46.5507 109.452 46.4627 110.024 46.4627H111.388V48.7507H109.144C108.264 48.7507 107.546 49.0147 106.988 49.5427C106.431 50.056 106.152 50.7527 106.152 51.6327V55.8787H110.266V57.8147H100.74V55.8787ZM119.278 58.0787C118.427 58.0787 117.664 57.9394 116.99 57.6607C116.33 57.382 115.765 56.986 115.296 56.4727C114.841 55.9594 114.489 55.336 114.24 54.6027C114.005 53.8694 113.888 53.048 113.888 52.1387C113.888 51.2294 114.005 50.408 114.24 49.6747C114.489 48.9414 114.841 48.318 115.296 47.8047C115.765 47.2914 116.33 46.8954 116.99 46.6167C117.664 46.338 118.42 46.1987 119.256 46.1987C120.429 46.1987 121.368 46.448 122.072 46.9467C122.79 47.4454 123.326 48.0907 123.678 48.8827L121.808 49.8947C121.602 49.3667 121.287 48.9487 120.862 48.6407C120.451 48.3327 119.916 48.1787 119.256 48.1787C118.346 48.1787 117.642 48.4574 117.144 49.0147C116.645 49.5574 116.396 50.2834 116.396 51.1927V53.0847C116.396 53.9794 116.645 54.7054 117.144 55.2627C117.642 55.82 118.361 56.0987 119.3 56.0987C120.004 56.0987 120.576 55.9374 121.016 55.6147C121.47 55.292 121.83 54.852 122.094 54.2947L123.854 55.3727C123.487 56.1647 122.93 56.8174 122.182 57.3307C121.434 57.8294 120.466 58.0787 119.278 58.0787ZM127.299 41.5347H129.697V48.3987H129.807C129.924 48.1054 130.071 47.8267 130.247 47.5627C130.438 47.284 130.665 47.0494 130.929 46.8587C131.193 46.6534 131.501 46.492 131.853 46.3747C132.205 46.2574 132.616 46.1987 133.085 46.1987C134.229 46.1987 135.153 46.5727 135.857 47.3207C136.561 48.0687 136.913 49.132 136.913 50.5107V57.8147H134.515V50.8627C134.515 49.0587 133.73 48.1567 132.161 48.1567C131.853 48.1567 131.552 48.2007 131.259 48.2887C130.966 48.362 130.702 48.4794 130.467 48.6407C130.232 48.802 130.042 49.0074 129.895 49.2567C129.763 49.506 129.697 49.792 129.697 50.1147V57.8147H127.299V41.5347Z" fill="black"/>
</g>
<g filter="url(#filter2_i_171_42)">
<path d="M83.8295 143.436L82.0375 142.124L84.9495 138.412L80.4055 137.164L81.1095 135.02L85.5255 136.652L85.3335 131.948H87.5735L87.3815 136.652L91.7975 135.02L92.5015 137.164L87.9575 138.412L90.8695 142.124L89.0775 143.436L86.4535 139.5L83.8295 143.436Z" fill="black"/>
</g>
<defs>
<filter id="filter0_i_171_42" x="61.5918" y="15.7676" width="50.3765" height="17.6199" filterUnits="userSpaceOnUse" color-interpolation-filters="sRGB">
<feFlood flood-opacity="0" result="BackgroundImageFix"/>
<feBlend mode="normal" in="SourceGraphic" in2="BackgroundImageFix" result="shape"/>
<feColorMatrix in="SourceAlpha" type="matrix" values="0 0 0 0 0 0 0 0 0 0 0 0 0 0 0 0 0 0 127 0" result="hardAlpha"/>
<feOffset dy="2"/>
<feGaussianBlur stdDeviation="1"/>
<feComposite in2="hardAlpha" operator="arithmetic" k2="-1" k3="1"/>
<feColorMatrix type="matrix" values="0 0 0 0 0 0 0 0 0 0 0 0 0 0 0 0 0 0 0.25 0"/>
<feBlend mode="normal" in2="shape" result="effect1_innerShadow_171_42"/>
</filter>
<filter id="filter1_i_171_42" x="34.959" y="41.5347" width="101.954" height="18.5439" filterUnits="userSpaceOnUse" color-interpolation-filters="sRGB">
<feFlood flood-opacity="0" result="BackgroundImageFix"/>
<feBlend mode="normal" in="SourceGraphic" in2="BackgroundImageFix" result="shape"/>
<feColorMatrix in="SourceAlpha" type="matrix" values="0 0 0 0 0 0 0 0 0 0 0 0 0 0 0 0 0 0 127 0" result="hardAlpha"/>
<feOffset dy="2"/>
<feGaussianBlur stdDeviation="1"/>
<feComposite in2="hardAlpha" operator="arithmetic" k2="-1" k3="1"/>
<feColorMatrix type="matrix" values="0 0 0 0 0 0 0 0 0 0 0 0 0 0 0 0 0 0 0.25 0"/>
<feBlend mode="normal" in2="shape" result="effect1_innerShadow_171_42"/>
</filter>
<filter id="filter2_i_171_42" x="80.4053" y="131.948" width="12.0962" height="13.488" filterUnits="userSpaceOnUse" color-interpolation-filters="sRGB">
<feFlood flood-opacity="0" result="BackgroundImageFix"/>
<feBlend mode="normal" in="SourceGraphic" in2="BackgroundImageFix" result="shape"/>
<feColorMatrix in="SourceAlpha" type="matrix" values="0 0 0 0 0 0 0 0 0 0 0 0 0 0 0 0 0 0 127 0" result="hardAlpha"/>
<feOffset dy="2"/>
<feGaussianBlur stdDeviation="1"/>
<feComposite in2="hardAlpha" operator="arithmetic" k2="-1" k3="1"/>
<feColorMatrix type="matrix" values="0 0 0 0 0 0 0 0 0 0 0 0 0 0 0 0 0 0 0.25 0"/>
<feBlend mode="normal" in2="shape" result="effect1_innerShadow_171_42"/>
</filter>
</defs>
</svg>
