<svg xmlns="http://www.w3.org/2000/svg" width="92" height="91" viewBox="0 0 92 91" fill="none">
  <g clip-path="url(#clip0_282_767)">
    <rect width="92" height="91" rx="12" fill="#FFF4CC"/>
    <path d="M71.5556 0H20.4444C9.15329 0 0 9.0538 0 20.2222V70.7778C0 81.9462 9.15329 91 20.4444 91H71.5556C82.8467 91 92 81.9462 92 70.7778V20.2222C92 9.0538 82.8467 0 71.5556 0Z" fill="#FF8A4E"/>
    <path d="M17.2512 26.352V34.1598C17.2512 34.6816 17.2635 35.1548 17.288 35.5794C17.3248 36.0041 17.4168 36.3681 17.564 36.6714C17.7112 36.9626 17.932 37.1871 18.2264 37.3448C18.5208 37.5026 18.9256 37.5814 19.4408 37.5814C19.956 37.5814 20.3608 37.5026 20.6552 37.3448C20.9496 37.1871 21.1704 36.9626 21.3176 36.6714C21.4648 36.3681 21.5507 36.0041 21.5752 35.5794C21.612 35.1548 21.6304 34.6816 21.6304 34.1598V26.352H23.6912V33.7958C23.6912 34.7058 23.636 35.5066 23.5256 36.1982C23.4275 36.8777 23.2251 37.448 22.9184 37.909C22.6118 38.358 22.1763 38.6977 21.612 38.9282C21.06 39.1588 20.3363 39.274 19.4408 39.274C18.5454 39.274 17.8155 39.1588 17.2512 38.9282C16.6992 38.6977 16.2699 38.358 15.9632 37.909C15.6566 37.448 15.448 36.8777 15.3376 36.1982C15.2395 35.5066 15.1904 34.7058 15.1904 33.7958V26.352H17.2512ZM35.6624 39.0556H33.3256L31.872 36.544L30.5104 34.1416H30.4L29.0016 36.544L27.4928 39.0556H25.3032L29.2408 32.54L25.5424 26.352H27.8792L29.1856 28.627L30.5104 30.9748H30.6024L31.9272 28.627L33.2888 26.352H35.4784L31.7616 32.54L35.6624 39.0556ZM37.5137 41.5672L43.7145 25.2236H45.4993L39.2985 41.5672H37.5137ZM50.3497 26.352V34.1598C50.3497 34.6816 50.3619 35.1548 50.3865 35.5794C50.4233 36.0041 50.5153 36.3681 50.6625 36.6714C50.8097 36.9626 51.0305 37.1871 51.3246 37.3448C51.619 37.5026 52.0238 37.5814 52.539 37.5814C53.0542 37.5814 53.459 37.5026 53.7534 37.3448C54.0478 37.1871 54.2686 36.9626 54.4158 36.6714C54.563 36.3681 54.6489 36.0041 54.6734 35.5794C54.7102 35.1548 54.7286 34.6816 54.7286 34.1598V26.352H56.7894V33.7958C56.7894 34.7058 56.7342 35.5066 56.6238 36.1982C56.5257 36.8777 56.3233 37.448 56.0166 37.909C55.7099 38.358 55.2745 38.6977 54.7102 38.9282C54.1582 39.1588 53.4345 39.274 52.539 39.274C51.6435 39.274 50.9139 39.1588 50.3497 38.9282C49.7977 38.6977 49.3683 38.358 49.0617 37.909C48.755 37.448 48.5465 36.8777 48.4361 36.1982C48.3379 35.5066 48.2889 34.7058 48.2889 33.7958V26.352H50.3497ZM59.5239 39.0556V37.5086H62.5415V27.899H59.5239V26.352H67.6199V27.899H64.6023V37.5086H67.6199V39.0556H59.5239Z" fill="#1F2529"/>
    <path d="M15.6523 53.7607H18.2437C19.3777 53.7607 20.2237 54.1465 20.7819 54.9174C21.34 55.6889 21.6191 56.8325 21.6191 58.3481C21.6191 59.8643 21.34 61.0079 20.7819 61.7788C20.2237 62.5503 19.3777 62.9356 18.2437 62.9356H15.6523V53.7607ZM18.1905 61.976C18.9347 61.976 19.4928 61.7222 19.8649 61.2136C20.2459 60.7056 20.4363 59.9872 20.4363 59.0579V57.6383C20.4363 56.7096 20.2459 55.9912 19.8649 55.4827C19.4928 54.9746 18.9347 54.7203 18.1905 54.7203H16.7686V61.976H18.1905ZM26.4643 63.0933C25.9682 63.0933 25.5208 63.0104 25.1222 62.8435C24.7323 62.6772 24.3957 62.4406 24.1122 62.1337C23.8376 61.8183 23.625 61.4462 23.4743 61.0165C23.3237 60.5787 23.2484 60.0923 23.2484 59.5574C23.2484 59.0145 23.3237 58.5236 23.4743 58.0853C23.6338 57.6474 23.8509 57.2749 24.1255 56.968C24.4001 56.6525 24.7279 56.4119 25.1089 56.245C25.4987 56.0787 25.9283 55.9953 26.3979 55.9953C26.8586 55.9953 27.275 56.0787 27.647 56.245C28.028 56.4119 28.3514 56.6439 28.6171 56.9417C28.8829 57.2309 29.0867 57.5772 29.2284 57.9801C29.3702 58.3835 29.441 58.8259 29.441 59.3077V59.8072H24.3647V60.1226C24.3647 60.4209 24.4134 60.697 24.5109 60.9507C24.6083 61.205 24.7456 61.4239 24.9228 61.608C25.1089 61.792 25.3303 61.9366 25.5873 62.0417C25.853 62.1383 26.1454 62.1863 26.4643 62.1863C26.925 62.1863 27.3237 62.0812 27.6603 61.8709C27.997 61.6605 28.2539 61.3714 28.4311 61.0033L29.2151 61.5291C29.0114 61.9851 28.6703 62.3618 28.1919 62.6595C27.7223 62.9487 27.1465 63.0933 26.4643 63.0933ZM26.3979 56.8628C26.1055 56.8628 25.8353 56.9154 25.5873 57.0206C25.3392 57.1257 25.1222 57.2703 24.9361 57.4543C24.7589 57.6383 24.6172 57.8578 24.5109 58.1115C24.4134 58.3572 24.3647 58.6287 24.3647 58.9265V59.0185H28.2982V58.8739C28.2982 58.5762 28.2495 58.3047 28.152 58.059C28.0635 57.8138 27.935 57.6035 27.7666 57.428C27.6072 57.244 27.4079 57.104 27.1686 57.0074C26.9383 56.9114 26.6814 56.8628 26.3979 56.8628ZM34.3926 63.0933C33.675 63.0933 33.0549 62.975 32.5321 62.7384C32.0183 62.4932 31.5798 62.1691 31.2165 61.7657L31.9341 61.1479C32.262 61.4897 32.6208 61.7526 33.0105 61.9366C33.4004 62.1206 33.8699 62.2126 34.4192 62.2126C34.9507 62.2126 35.3849 62.1206 35.7215 61.9366C36.067 61.744 36.2397 61.4462 36.2397 61.0428C36.2397 60.8678 36.2043 60.7232 36.1334 60.609C36.0714 60.4866 35.9829 60.3901 35.8677 60.3198C35.7525 60.2501 35.6241 60.1975 35.4823 60.1621C35.3406 60.1186 35.1899 60.0832 35.0305 60.0569L33.9541 59.8992C33.7149 59.8643 33.4535 59.8163 33.17 59.7546C32.8954 59.6934 32.6429 59.5969 32.4125 59.4654C32.1822 59.3254 31.9873 59.1414 31.8278 58.9134C31.6773 58.6859 31.6019 58.3876 31.6019 58.0195C31.6019 57.6778 31.6684 57.3846 31.8013 57.1389C31.943 56.8851 32.1379 56.6748 32.386 56.5079C32.6341 56.333 32.9264 56.2056 33.263 56.1267C33.5997 56.0393 33.9673 55.9953 34.366 55.9953C34.9862 55.9953 35.5221 56.0919 35.974 56.2845C36.4347 56.4776 36.8289 56.7445 37.1567 57.0863L36.4657 57.7304C36.3859 57.6343 36.2841 57.5377 36.16 57.4412C36.0449 57.336 35.8987 57.244 35.7215 57.1651C35.5532 57.0777 35.3538 57.0074 35.1235 56.9548C34.8932 56.9023 34.6274 56.876 34.3261 56.876C33.7857 56.876 33.3693 56.968 33.077 57.152C32.7935 57.336 32.6517 57.6035 32.6517 57.9538C32.6517 58.1292 32.6828 58.2784 32.7448 58.4007C32.8157 58.515 32.9087 58.607 33.0238 58.6768C33.139 58.747 33.2675 58.8042 33.4092 58.8476C33.5598 58.883 33.7105 58.9134 33.861 58.9396L34.9374 59.0974C35.1855 59.1328 35.4469 59.1808 35.7215 59.242C35.9962 59.3036 36.2486 59.4043 36.4789 59.5443C36.7093 59.6757 36.8998 59.8557 37.0504 60.0832C37.2098 60.3112 37.2896 60.609 37.2896 60.977C37.2896 61.652 37.0238 62.1732 36.4922 62.5412C35.9696 62.9093 35.2697 63.0933 34.3926 63.0933ZM42.7063 54.6546C42.3962 54.6546 42.1791 54.5934 42.0551 54.4705C41.9311 54.3391 41.8691 54.1773 41.8691 53.9842V53.7739C41.8691 53.5813 41.9311 53.4235 42.0551 53.3007C42.1791 53.1692 42.3962 53.1035 42.7063 53.1035C43.0163 53.1035 43.2334 53.1692 43.3574 53.3007C43.4814 53.4235 43.5435 53.5813 43.5435 53.7739V53.9842C43.5435 54.1773 43.4814 54.3391 43.3574 54.4705C43.2334 54.5934 43.0163 54.6546 42.7063 54.6546ZM39.703 62.0417H42.1747V57.0468H39.703V56.153H43.2378V62.0417H45.5501V62.9356H39.703V62.0417ZM53.7176 63.7111C53.7176 64.3946 53.4298 64.8986 52.8538 65.2227C52.2778 65.5559 51.414 65.7222 50.2624 65.7222C49.1551 65.7222 48.3577 65.5776 47.8704 65.2884C47.392 64.9992 47.1528 64.5832 47.1528 64.0397C47.1528 63.6716 47.2503 63.387 47.4452 63.1853C47.6401 62.9841 47.9148 62.835 48.2691 62.7384V62.5807C48.0742 62.4846 47.9236 62.3618 47.8173 62.2126C47.711 62.064 47.6578 61.8754 47.6578 61.6474C47.6578 61.2971 47.773 61.0342 48.0033 60.8587C48.2425 60.6838 48.5393 60.5524 48.8937 60.4644V60.4118C48.4684 60.2278 48.1362 59.9563 47.897 59.5969C47.6667 59.2379 47.5515 58.8173 47.5515 58.335C47.5515 57.9932 47.6136 57.6778 47.7376 57.3886C47.8616 57.0994 48.0388 56.8542 48.2691 56.6525C48.5083 56.4422 48.7918 56.2804 49.1196 56.1662C49.4474 56.0524 49.8106 55.9953 50.2093 55.9953C50.7232 55.9953 51.1748 56.0873 51.5648 56.2713V56.153C51.5648 55.8901 51.6266 55.6712 51.7508 55.4958C51.875 55.3209 52.0876 55.2329 52.3887 55.2329H53.6511V56.153H52.1096V56.6131C52.3575 56.8234 52.5481 57.0731 52.681 57.3623C52.8139 57.6515 52.8804 57.9761 52.8804 58.335C52.8804 58.6768 52.8139 58.9922 52.681 59.2814C52.5568 59.5706 52.38 59.8203 52.1495 60.0306C51.9189 60.2324 51.6358 60.3901 51.299 60.5038C50.9712 60.6181 50.608 60.6747 50.2093 60.6747C50.0941 60.6747 49.9834 60.6707 49.8771 60.6616C49.7707 60.653 49.6644 60.6398 49.5581 60.6221C49.4518 60.6398 49.3411 60.6707 49.2259 60.7141C49.1107 60.7495 49.0044 60.8021 48.907 60.8719C48.8096 60.9336 48.7298 61.0079 48.6678 61.0953C48.6058 61.1833 48.5748 61.2839 48.5748 61.3977C48.5748 61.5994 48.6767 61.7354 48.8804 61.8051C49.0842 61.8668 49.3499 61.8971 49.6777 61.8971H51.1927C52.0784 61.8971 52.7209 62.064 53.1196 62.3966C53.5182 62.7212 53.7176 63.159 53.7176 63.7111ZM52.7209 63.7637C52.7209 63.4922 52.61 63.2733 52.3887 63.1064C52.1673 62.9487 51.782 62.8698 51.2325 62.8698H48.8538C48.3932 63.0539 48.1628 63.3607 48.1628 63.7899C48.1628 64.0882 48.2824 64.342 48.5216 64.5523C48.7608 64.7717 49.1595 64.8809 49.7176 64.8809H50.7541C51.3741 64.8809 51.8571 64.7849 52.2026 64.5918C52.5481 64.4077 52.7209 64.1317 52.7209 63.7637ZM50.2093 59.8598C50.7408 59.8598 51.1308 59.7374 51.3787 59.4917C51.6358 59.2465 51.7641 58.9225 51.7641 58.519V58.1378C51.7641 57.7349 51.6358 57.4149 51.3787 57.1783C51.1308 56.9331 50.7408 56.8102 50.2093 56.8102C49.6777 56.8102 49.288 56.9331 49.0399 57.1783C48.7918 57.4149 48.6678 57.7349 48.6678 58.1378V58.519C48.6678 58.9225 48.7918 59.2465 49.0399 59.4917C49.288 59.7374 49.6777 59.8598 50.2093 59.8598ZM55.533 62.9356V56.153H56.5961V57.2572H56.6493C56.7203 57.0908 56.8088 56.9331 56.9151 56.784C57.0214 56.6262 57.1497 56.4907 57.3004 56.3765C57.4599 56.2627 57.646 56.1707 57.8586 56.1004C58.0712 56.0307 58.3191 55.9953 58.6028 55.9953C59.3204 55.9953 59.8964 56.2233 60.3303 56.6788C60.7642 57.1257 60.9815 57.7612 60.9815 58.5847V62.9356H59.9184V58.7688C59.9184 58.1469 59.7809 57.6869 59.5064 57.3886C59.2319 57.0822 58.8287 56.9286 58.2971 56.9286C58.0845 56.9286 57.8765 56.9548 57.6725 57.0074C57.4686 57.06 57.2872 57.1389 57.1277 57.244C56.9682 57.3492 56.8399 57.4852 56.7423 57.6515C56.6447 57.8183 56.5961 58.0109 56.5961 58.2298V62.9356H55.533Z" fill="#1F2529"/>
  </g>
  <defs>
    <clipPath id="clip0_282_767">
      <rect width="92" height="91" rx="12" fill="white"/>
    </clipPath>
  </defs>
</svg>