<svg width="180" height="180" viewBox="0 0 180 180" fill="none" xmlns="http://www.w3.org/2000/svg">
<rect width="180" height="180" rx="40" fill="#FF8A4E"/>
<path d="M33.7529 52.1241V67.5681C33.7529 68.6001 33.7769 69.5361 33.8249 70.3761C33.8969 71.2161 34.0769 71.9361 34.3649 72.5361C34.6529 73.1121 35.0849 73.5561 35.6609 73.8681C36.2369 74.1801 37.0289 74.3361 38.0369 74.3361C39.0449 74.3361 39.8369 74.1801 40.4129 73.8681C40.9889 73.5561 41.4209 73.1121 41.7089 72.5361C41.9969 71.9361 42.1649 71.2161 42.2129 70.3761C42.2849 69.5361 42.3209 68.6001 42.3209 67.5681V52.1241H46.3529V66.8481C46.3529 68.6481 46.2449 70.2321 46.0289 71.6001C45.8369 72.9441 45.4409 74.0721 44.8409 74.9841C44.2409 75.8721 43.3889 76.5441 42.2849 77.0001C41.2049 77.4561 39.7889 77.6841 38.0369 77.6841C36.2849 77.6841 34.8569 77.4561 33.7529 77.0001C32.6729 76.5441 31.8329 75.8721 31.2329 74.9841C30.6329 74.0721 30.2249 72.9441 30.0089 71.6001C29.8169 70.2321 29.7209 68.6481 29.7209 66.8481V52.1241H33.7529ZM69.7749 77.2521H65.2029L62.3589 72.2841L59.6949 67.5321H59.4789L56.7429 72.2841L53.7909 77.2521H49.5069L57.2109 64.3641L49.9749 52.1241H54.5469L57.1029 56.6241L59.6949 61.2681H59.8749L62.4669 56.6241L65.1309 52.1241H69.4149L62.1429 64.3641L69.7749 77.2521ZM73.3968 82.2201L85.5288 49.8921H89.0208L76.8888 82.2201H73.3968ZM98.5107 52.1241V67.5681C98.5107 68.6001 98.5347 69.5361 98.5827 70.3761C98.6547 71.2161 98.8347 71.9361 99.1227 72.5361C99.4107 73.1121 99.8427 73.5561 100.419 73.8681C100.995 74.1801 101.787 74.3361 102.795 74.3361C103.803 74.3361 104.595 74.1801 105.171 73.8681C105.747 73.5561 106.179 73.1121 106.467 72.5361C106.755 71.9361 106.923 71.2161 106.971 70.3761C107.043 69.5361 107.079 68.6001 107.079 67.5681V52.1241H111.111V66.8481C111.111 68.6481 111.003 70.2321 110.787 71.6001C110.595 72.9441 110.199 74.0721 109.599 74.9841C108.999 75.8721 108.147 76.5441 107.043 77.0001C105.963 77.4561 104.547 77.6841 102.795 77.6841C101.043 77.6841 99.6147 77.4561 98.5107 77.0001C97.4307 76.5441 96.5907 75.8721 95.9907 74.9841C95.3907 74.0721 94.9827 72.9441 94.7667 71.6001C94.5747 70.2321 94.4787 68.6481 94.4787 66.8481V52.1241H98.5107ZM116.461 77.2521V74.1921H122.365V55.1841H116.461V52.1241H132.301V55.1841H126.397V74.1921H132.301V77.2521H116.461Z" fill="#1F2529"/>
<path d="M30.6249 106.339H35.6949C37.9136 106.339 39.5689 107.102 40.6609 108.627C41.7529 110.153 42.2989 112.415 42.2989 115.413C42.2989 118.412 41.7529 120.674 40.6609 122.199C39.5689 123.725 37.9136 124.487 35.6949 124.487H30.6249V106.339ZM35.5909 122.589C37.0469 122.589 38.1389 122.087 38.8669 121.081C39.6122 120.076 39.9849 118.655 39.9849 116.817V114.009C39.9849 112.172 39.6122 110.751 38.8669 109.745C38.1389 108.74 37.0469 108.237 35.5909 108.237H32.8089V122.589H35.5909ZM51.7787 124.799C50.8081 124.799 49.9327 124.635 49.1527 124.305C48.3901 123.976 47.7314 123.508 47.1767 122.901C46.6394 122.277 46.2234 121.541 45.9287 120.691C45.6341 119.825 45.4867 118.863 45.4867 117.805C45.4867 116.731 45.6341 115.76 45.9287 114.893C46.2407 114.027 46.6654 113.29 47.2027 112.683C47.7401 112.059 48.3814 111.583 49.1267 111.253C49.8894 110.924 50.7301 110.759 51.6487 110.759C52.5501 110.759 53.3647 110.924 54.0927 111.253C54.8381 111.583 55.4707 112.042 55.9907 112.631C56.5107 113.203 56.9094 113.888 57.1867 114.685C57.4641 115.483 57.6027 116.358 57.6027 117.311V118.299H47.6707V118.923C47.6707 119.513 47.7661 120.059 47.9567 120.561C48.1474 121.064 48.4161 121.497 48.7627 121.861C49.1267 122.225 49.5601 122.511 50.0627 122.719C50.5827 122.91 51.1547 123.005 51.7787 123.005C52.6801 123.005 53.4601 122.797 54.1187 122.381C54.7774 121.965 55.2801 121.393 55.6267 120.665L57.1607 121.705C56.7621 122.607 56.0947 123.352 55.1587 123.941C54.2401 124.513 53.1134 124.799 51.7787 124.799ZM51.6487 112.475C51.0767 112.475 50.5481 112.579 50.0627 112.787C49.5774 112.995 49.1527 113.281 48.7887 113.645C48.4421 114.009 48.1647 114.443 47.9567 114.945C47.7661 115.431 47.6707 115.968 47.6707 116.557V116.739H55.3667V116.453C55.3667 115.864 55.2714 115.327 55.0807 114.841C54.9074 114.356 54.6561 113.94 54.3267 113.593C54.0147 113.229 53.6247 112.952 53.1567 112.761C52.7061 112.571 52.2034 112.475 51.6487 112.475ZM67.2906 124.799C65.8866 124.799 64.6732 124.565 63.6506 124.097C62.6452 123.612 61.7872 122.971 61.0766 122.173L62.4806 120.951C63.1219 121.627 63.8239 122.147 64.5866 122.511C65.3492 122.875 66.2679 123.057 67.3426 123.057C68.3826 123.057 69.2319 122.875 69.8906 122.511C70.5666 122.13 70.9046 121.541 70.9046 120.743C70.9046 120.397 70.8352 120.111 70.6966 119.885C70.5752 119.643 70.4019 119.452 70.1766 119.313C69.9512 119.175 69.6999 119.071 69.4226 119.001C69.1452 118.915 68.8506 118.845 68.5386 118.793L66.4326 118.481C65.9646 118.412 65.4532 118.317 64.8986 118.195C64.3612 118.074 63.8672 117.883 63.4166 117.623C62.9659 117.346 62.5846 116.982 62.2726 116.531C61.9779 116.081 61.8306 115.491 61.8306 114.763C61.8306 114.087 61.9606 113.507 62.2206 113.021C62.4979 112.519 62.8792 112.103 63.3646 111.773C63.8499 111.427 64.4219 111.175 65.0806 111.019C65.7392 110.846 66.4586 110.759 67.2386 110.759C68.4519 110.759 69.5006 110.95 70.3846 111.331C71.2859 111.713 72.0572 112.241 72.6986 112.917L71.3466 114.191C71.1906 114.001 70.9912 113.81 70.7486 113.619C70.5232 113.411 70.2372 113.229 69.8906 113.073C69.5612 112.9 69.1712 112.761 68.7206 112.657C68.2699 112.553 67.7499 112.501 67.1606 112.501C66.1032 112.501 65.2886 112.683 64.7166 113.047C64.1619 113.411 63.8846 113.94 63.8846 114.633C63.8846 114.98 63.9452 115.275 64.0666 115.517C64.2052 115.743 64.3872 115.925 64.6126 116.063C64.8379 116.202 65.0892 116.315 65.3666 116.401C65.6612 116.471 65.9559 116.531 66.2506 116.583L68.3566 116.895C68.8419 116.965 69.3532 117.06 69.8906 117.181C70.4279 117.303 70.9219 117.502 71.3726 117.779C71.8232 118.039 72.1959 118.395 72.4906 118.845C72.8026 119.296 72.9586 119.885 72.9586 120.613C72.9586 121.948 72.4386 122.979 71.3986 123.707C70.3759 124.435 69.0066 124.799 67.2906 124.799ZM83.5564 108.107C82.9498 108.107 82.5251 107.986 82.2824 107.743C82.0398 107.483 81.9184 107.163 81.9184 106.781V106.365C81.9184 105.984 82.0398 105.672 82.2824 105.429C82.5251 105.169 82.9498 105.039 83.5564 105.039C84.1631 105.039 84.5878 105.169 84.8304 105.429C85.0731 105.672 85.1944 105.984 85.1944 106.365V106.781C85.1944 107.163 85.0731 107.483 84.8304 107.743C84.5878 107.986 84.1631 108.107 83.5564 108.107ZM77.6804 122.719H82.5164V112.839H77.6804V111.071H84.5964V122.719H89.1204V124.487H77.6804V122.719ZM105.1 126.021C105.1 127.373 104.537 128.37 103.41 129.011C102.284 129.67 100.594 129.999 98.3403 129.999C96.1736 129.999 94.6136 129.713 93.6603 129.141C92.7243 128.569 92.2563 127.746 92.2563 126.671C92.2563 125.943 92.4469 125.38 92.8283 124.981C93.2096 124.583 93.7469 124.288 94.4403 124.097V123.785C94.0589 123.595 93.7643 123.352 93.5563 123.057C93.3483 122.763 93.2443 122.39 93.2443 121.939C93.2443 121.246 93.4696 120.726 93.9203 120.379C94.3883 120.033 94.9689 119.773 95.6623 119.599V119.495C94.8303 119.131 94.1803 118.594 93.7123 117.883C93.2616 117.173 93.0363 116.341 93.0363 115.387C93.0363 114.711 93.1576 114.087 93.4003 113.515C93.6429 112.943 93.9896 112.458 94.4403 112.059C94.9083 111.643 95.4629 111.323 96.1043 111.097C96.7456 110.872 97.4563 110.759 98.2363 110.759C99.2416 110.759 100.126 110.941 100.888 111.305V111.071C100.888 110.551 101.01 110.118 101.252 109.771C101.495 109.425 101.911 109.251 102.5 109.251H104.97V111.071H101.954V111.981C102.44 112.397 102.812 112.891 103.072 113.463C103.332 114.035 103.462 114.677 103.462 115.387C103.462 116.063 103.332 116.687 103.072 117.259C102.83 117.831 102.483 118.325 102.032 118.741C101.582 119.14 101.027 119.452 100.368 119.677C99.7269 119.903 99.0163 120.015 98.2363 120.015C98.0109 120.015 97.7943 120.007 97.5863 119.989C97.3783 119.972 97.1703 119.946 96.9623 119.911C96.7543 119.946 96.5376 120.007 96.3123 120.093C96.0869 120.163 95.8789 120.267 95.6883 120.405C95.4976 120.527 95.3416 120.674 95.2203 120.847C95.0989 121.021 95.0383 121.22 95.0383 121.445C95.0383 121.844 95.2376 122.113 95.6363 122.251C96.0349 122.373 96.5549 122.433 97.1963 122.433H100.16C101.894 122.433 103.15 122.763 103.93 123.421C104.71 124.063 105.1 124.929 105.1 126.021ZM103.15 126.125C103.15 125.588 102.934 125.155 102.5 124.825C102.067 124.513 101.313 124.357 100.238 124.357H95.5843C94.6829 124.721 94.2323 125.328 94.2323 126.177C94.2323 126.767 94.4663 127.269 94.9343 127.685C95.4023 128.119 96.1823 128.335 97.2743 128.335H99.3023C100.516 128.335 101.46 128.145 102.136 127.763C102.812 127.399 103.15 126.853 103.15 126.125ZM98.2363 118.403C99.2763 118.403 100.039 118.161 100.524 117.675C101.027 117.19 101.278 116.549 101.278 115.751V114.997C101.278 114.2 101.027 113.567 100.524 113.099C100.039 112.614 99.2763 112.371 98.2363 112.371C97.1963 112.371 96.4336 112.614 95.9483 113.099C95.4629 113.567 95.2203 114.2 95.2203 114.997V115.751C95.2203 116.549 95.4629 117.19 95.9483 117.675C96.4336 118.161 97.1963 118.403 98.2363 118.403ZM108.652 124.487V111.071H110.732V113.255H110.836C110.975 112.926 111.148 112.614 111.356 112.319C111.564 112.007 111.815 111.739 112.11 111.513C112.422 111.288 112.786 111.106 113.202 110.967C113.618 110.829 114.103 110.759 114.658 110.759C116.062 110.759 117.189 111.21 118.038 112.111C118.887 112.995 119.312 114.252 119.312 115.881V124.487H117.232V116.245C117.232 115.015 116.963 114.105 116.426 113.515C115.889 112.909 115.1 112.605 114.06 112.605C113.644 112.605 113.237 112.657 112.838 112.761C112.439 112.865 112.084 113.021 111.772 113.229C111.46 113.437 111.209 113.706 111.018 114.035C110.827 114.365 110.732 114.746 110.732 115.179V124.487H108.652Z" fill="#1F2529"/>
</svg>
