<svg width="181" height="188" viewBox="0 0 181 188" fill="none" xmlns="http://www.w3.org/2000/svg">
<path fill-rule="evenodd" clipRule="evenodd" d="M108.462 0H0V94V188H180.769V94H108.462V0Z" fill="#A0C7FE"/>
<path d="M23.7884 103.692L18.5084 81.3564H22.1884L24.4604 92.1084L26.0284 99.5324H26.1244L27.9164 92.1084L30.5724 81.3564H34.6044L37.2284 92.1084L38.9884 99.5004H39.0844L40.7164 92.1084L43.0524 81.3564H46.6044L41.1004 103.692H37.0364L34.1884 92.1404L32.5244 85.3564H32.4604L30.7644 92.1404L27.8524 103.692H23.7884ZM55.7957 104.076C54.601 104.076 53.5343 103.874 52.5957 103.468C51.657 103.063 50.857 102.487 50.1957 101.74C49.5343 100.972 49.0223 100.055 48.6597 98.9884C48.3183 97.9004 48.1477 96.695 48.1477 95.3724C48.1477 94.0497 48.3183 92.855 48.6597 91.7884C49.0223 90.7004 49.5343 89.783 50.1957 89.0364C50.857 88.2684 51.657 87.6817 52.5957 87.2764C53.5343 86.871 54.601 86.6684 55.7957 86.6684C57.0117 86.6684 58.0783 86.8817 58.9957 87.3084C59.9343 87.735 60.713 88.3324 61.3317 89.1004C61.9503 89.847 62.409 90.7217 62.7077 91.7244C63.0277 92.727 63.1877 93.8044 63.1877 94.9564V96.2684H51.7637V96.8124C51.7637 98.0924 52.137 99.1484 52.8837 99.9804C53.6517 100.791 54.7397 101.196 56.1477 101.196C57.1717 101.196 58.0357 100.972 58.7397 100.524C59.4437 100.076 60.041 99.4684 60.5317 98.7004L62.5797 100.716C61.961 101.74 61.065 102.562 59.8917 103.18C58.7183 103.778 57.353 104.076 55.7957 104.076ZM55.7957 89.3884C55.1983 89.3884 54.6437 89.495 54.1317 89.7084C53.641 89.9217 53.2143 90.2204 52.8517 90.6044C52.5103 90.9884 52.2437 91.447 52.0517 91.9804C51.8597 92.5137 51.7637 93.1004 51.7637 93.7404V93.9644H59.5077V93.6444C59.5077 92.3644 59.177 91.3404 58.5157 90.5724C57.8543 89.783 56.9477 89.3884 55.7957 89.3884ZM67.0489 80.0124H70.5369V89.8044H70.6969C71.0596 88.8017 71.6463 88.0337 72.4569 87.5004C73.2889 86.9457 74.2596 86.6684 75.3689 86.6684C77.4809 86.6684 79.1129 87.4364 80.2649 88.9724C81.4169 90.487 81.9929 92.6204 81.9929 95.3724C81.9929 98.1244 81.4169 100.268 80.2649 101.804C79.1129 103.319 77.4809 104.076 75.3689 104.076C74.2596 104.076 73.2889 103.799 72.4569 103.244C71.6463 102.69 71.0596 101.922 70.6969 100.94H70.5369V103.692H67.0489V80.0124ZM74.3129 101.068C75.5289 101.068 76.4996 100.684 77.2249 99.9164C77.9503 99.127 78.3129 98.0924 78.3129 96.8124V93.9324C78.3129 92.6524 77.9503 91.6284 77.2249 90.8604C76.4996 90.071 75.5289 89.6764 74.3129 89.6764C73.2463 89.6764 72.3503 89.943 71.6249 90.4764C70.8996 90.9884 70.5369 91.671 70.5369 92.5244V98.2204C70.5369 99.0737 70.8996 99.767 71.6249 100.3C72.3503 100.812 73.2463 101.068 74.3129 101.068Z" fill="white"/>
<path d="M24.0141 125.946H31.5021C32.8888 125.946 34.1474 126.181 35.2781 126.65C36.4088 127.119 37.3688 127.823 38.1581 128.762C38.9688 129.679 39.5874 130.842 40.0141 132.25C40.4408 133.637 40.6541 135.258 40.6541 137.114C40.6541 138.97 40.4408 140.602 40.0141 142.01C39.5874 143.397 38.9688 144.559 38.1581 145.498C37.3688 146.415 36.4088 147.109 35.2781 147.578C34.1474 148.047 32.8888 148.282 31.5021 148.282H24.0141V125.946ZM31.5021 145.914C32.4194 145.914 33.2621 145.765 34.0301 145.466C34.7981 145.146 35.4594 144.687 36.0141 144.09C36.5688 143.493 36.9954 142.767 37.2941 141.914C37.6141 141.039 37.7741 140.047 37.7741 138.938V135.29C37.7741 134.181 37.6141 133.199 37.2941 132.346C36.9954 131.471 36.5688 130.735 36.0141 130.138C35.4594 129.541 34.7981 129.093 34.0301 128.794C33.2621 128.474 32.4194 128.314 31.5021 128.314H26.7021V145.914H31.5021ZM51.4348 148.666C50.3042 148.666 49.2802 148.463 48.3628 148.058C47.4668 147.653 46.6882 147.077 46.0268 146.33C45.3868 145.562 44.8855 144.655 44.5228 143.61C44.1815 142.543 44.0108 141.349 44.0108 140.026C44.0108 138.725 44.1815 137.541 44.5228 136.474C44.8855 135.407 45.3868 134.501 46.0268 133.754C46.6882 132.986 47.4668 132.399 48.3628 131.994C49.2802 131.589 50.3042 131.386 51.4348 131.386C52.5442 131.386 53.5362 131.589 54.4108 131.994C55.2855 132.399 56.0322 132.965 56.6508 133.69C57.2695 134.394 57.7388 135.237 58.0588 136.218C58.4002 137.199 58.5708 138.277 58.5708 139.45V140.666H46.6988V141.434C46.6988 142.138 46.8055 142.799 47.0188 143.418C47.2535 144.015 47.5735 144.538 47.9788 144.986C48.4055 145.434 48.9175 145.786 49.5148 146.042C50.1335 146.298 50.8268 146.426 51.5948 146.426C52.6402 146.426 53.5468 146.181 54.3148 145.69C55.1042 145.199 55.7122 144.495 56.1388 143.578L57.9628 144.89C57.4295 146.021 56.5975 146.938 55.4668 147.642C54.3362 148.325 52.9922 148.666 51.4348 148.666ZM51.4348 133.53C50.7308 133.53 50.0908 133.658 49.5148 133.914C48.9388 134.149 48.4375 134.49 48.0108 134.938C47.6055 135.386 47.2855 135.919 47.0508 136.538C46.8162 137.135 46.6988 137.797 46.6988 138.522V138.746H55.8188V138.394C55.8188 136.922 55.4135 135.749 54.6028 134.874C53.8135 133.978 52.7575 133.53 51.4348 133.53ZM67.7493 148.666C66.2133 148.666 64.9227 148.378 63.8773 147.802C62.8533 147.205 61.968 146.415 61.2213 145.434L63.0453 143.962C63.6853 144.773 64.4 145.402 65.1893 145.85C65.9787 146.277 66.896 146.49 67.9413 146.49C69.0293 146.49 69.872 146.255 70.4693 145.786C71.088 145.317 71.3973 144.655 71.3973 143.802C71.3973 143.162 71.184 142.618 70.7573 142.17C70.352 141.701 69.6053 141.381 68.5173 141.21L67.2053 141.018C66.4373 140.911 65.7333 140.751 65.0933 140.538C64.4533 140.303 63.888 140.005 63.3973 139.642C62.928 139.258 62.5547 138.789 62.2773 138.234C62.0213 137.679 61.8933 137.018 61.8933 136.25C61.8933 135.439 62.0427 134.735 62.3413 134.138C62.64 133.519 63.0453 133.007 63.5573 132.602C64.0907 132.197 64.72 131.898 65.4453 131.706C66.1707 131.493 66.9493 131.386 67.7813 131.386C69.1253 131.386 70.2453 131.621 71.1413 132.09C72.0587 132.559 72.8587 133.21 73.5413 134.042L71.8453 135.578C71.4827 135.066 70.9493 134.607 70.2453 134.202C69.5413 133.775 68.656 133.562 67.5893 133.562C66.5227 133.562 65.712 133.797 65.1573 134.266C64.624 134.714 64.3573 135.333 64.3573 136.122C64.3573 136.933 64.624 137.519 65.1573 137.882C65.712 138.245 66.5013 138.511 67.5253 138.682L68.8053 138.874C70.64 139.151 71.9413 139.685 72.7093 140.474C73.4773 141.242 73.8613 142.255 73.8613 143.514C73.8613 145.114 73.3173 146.373 72.2293 147.29C71.1413 148.207 69.648 148.666 67.7493 148.666ZM79.6631 127.898C79.1084 127.898 78.7031 127.77 78.4471 127.514C78.2124 127.237 78.0951 126.885 78.0951 126.458V126.042C78.0951 125.615 78.2124 125.274 78.4471 125.018C78.7031 124.741 79.1084 124.602 79.6631 124.602C80.2178 124.602 80.6124 124.741 80.8471 125.018C81.1031 125.274 81.2311 125.615 81.2311 126.042V126.458C81.2311 126.885 81.1031 127.237 80.8471 127.514C80.6124 127.77 80.2178 127.898 79.6631 127.898ZM78.3831 131.77H80.9431V148.282H78.3831V131.77ZM100.303 150.106C100.303 151.813 99.6311 153.061 98.2871 153.85C96.9644 154.661 94.9698 155.066 92.3031 155.066C89.7218 155.066 87.8658 154.714 86.7351 154.01C85.6044 153.306 85.0391 152.303 85.0391 151.002C85.0391 150.106 85.2738 149.402 85.7431 148.89C86.2124 148.399 86.8524 148.037 87.6631 147.802V147.45C86.6818 146.981 86.1911 146.213 86.1911 145.146C86.1911 144.314 86.4578 143.685 86.9911 143.258C87.5244 142.81 88.2071 142.479 89.0391 142.266V142.138C88.0578 141.669 87.2898 140.997 86.7351 140.122C86.2018 139.247 85.9351 138.234 85.9351 137.082C85.9351 136.25 86.0844 135.482 86.3831 134.778C86.6818 134.074 87.0978 133.477 87.6311 132.986C88.1858 132.474 88.8364 132.079 89.5831 131.802C90.3511 131.525 91.2044 131.386 92.1431 131.386C93.3164 131.386 94.3618 131.599 95.2791 132.026V131.738C95.2791 131.098 95.4284 130.575 95.7271 130.17C96.0258 129.743 96.5164 129.53 97.1991 129.53H99.6631V131.77H96.5271V132.826C97.1244 133.338 97.5831 133.957 97.9031 134.682C98.2444 135.386 98.4151 136.186 98.4151 137.082C98.4151 137.914 98.2658 138.682 97.9671 139.386C97.6684 140.09 97.2418 140.698 96.6871 141.21C96.1538 141.701 95.5031 142.085 94.7351 142.362C93.9671 142.639 93.1138 142.778 92.1751 142.778C91.6418 142.778 91.1084 142.725 90.5751 142.618C90.0204 142.767 89.5191 142.991 89.0711 143.29C88.6231 143.567 88.3991 143.962 88.3991 144.474C88.3991 144.965 88.6338 145.295 89.1031 145.466C89.5724 145.637 90.1804 145.722 90.9271 145.722H94.4471C96.4951 145.722 97.9778 146.117 98.8951 146.906C99.8338 147.674 100.303 148.741 100.303 150.106ZM97.9031 150.298C97.9031 149.637 97.6471 149.103 97.1351 148.698C96.6444 148.314 95.7591 148.122 94.4791 148.122H88.9751C87.9511 148.591 87.4391 149.338 87.4391 150.362C87.4391 151.087 87.7058 151.706 88.2391 152.218C88.7938 152.73 89.7218 152.986 91.0231 152.986H93.3911C94.8204 152.986 95.9298 152.762 96.7191 152.314C97.5084 151.866 97.9031 151.194 97.9031 150.298ZM92.1751 140.73C93.2631 140.73 94.1271 140.474 94.7671 139.962C95.4071 139.429 95.7271 138.618 95.7271 137.53V136.634C95.7271 135.546 95.4071 134.746 94.7671 134.234C94.1271 133.701 93.2631 133.434 92.1751 133.434C91.0871 133.434 90.2231 133.701 89.5831 134.234C88.9431 134.746 88.6231 135.546 88.6231 136.634V137.53C88.6231 138.618 88.9431 139.429 89.5831 139.962C90.2231 140.474 91.0871 140.73 92.1751 140.73ZM103.289 148.282V131.77H105.849V134.458H105.977C106.383 133.519 106.948 132.773 107.673 132.218C108.42 131.663 109.412 131.386 110.649 131.386C112.356 131.386 113.7 131.941 114.681 133.05C115.684 134.138 116.185 135.685 116.185 137.69V148.282H113.625V138.138C113.625 135.173 112.377 133.69 109.881 133.69C109.369 133.69 108.868 133.754 108.377 133.882C107.908 134.01 107.481 134.202 107.097 134.458C106.713 134.714 106.404 135.045 106.169 135.45C105.956 135.834 105.849 136.293 105.849 136.826V148.282H103.289Z" fill="white"/>
</svg>
