<svg xmlns="http://www.w3.org/2000/svg" width="117" height="120" viewBox="0 0 117 120" fill="none">
  <path fill-rule="evenodd" clip-rule="evenodd" d="M81.9811 17.518L30.1159 0L15.058 45.3213L0 90.6427L86.4423 119.839L101.5 74.518L66.9234 62.8393L81.9811 17.518Z" fill="#A0C7FE"/>
  <path d="M24.8809 53.8366L25.9341 42.2148L27.6938 42.8093L27.0579 48.3602L26.6184 52.1927L26.6643 52.2085L28.7105 48.9184L31.703 44.1634L33.631 44.8146L33.1634 50.4224L32.8209 54.2708L32.8668 54.2861L34.8314 50.9856L37.6708 46.1791L39.3693 46.7528L33.1593 56.6327L31.216 55.9763L31.7046 49.9468L31.9956 46.4072L31.965 46.3968L30.0673 49.3938L26.8242 54.493L24.8809 53.8366ZM40.125 59.1913C39.5537 58.9986 39.0761 58.7286 38.6922 58.3813C38.3082 58.0346 38.0179 57.6278 37.8213 57.161C37.6281 56.6835 37.5302 56.1588 37.5277 55.5857C37.5387 55.0061 37.6502 54.3974 37.8621 53.7598C38.0739 53.1222 38.3469 52.5735 38.681 52.1144C39.0287 51.6486 39.4205 51.2886 39.8564 51.0354C40.2957 50.7722 40.7722 50.6185 41.286 50.5747C41.7998 50.5309 42.3423 50.6054 42.9136 50.7984C43.4951 50.9947 43.971 51.2698 44.3413 51.6237C44.7218 51.9812 44.9985 52.3951 45.1713 52.8649C45.3475 53.3251 45.4267 53.8208 45.4089 54.3527C45.4013 54.8876 45.3053 55.4327 45.1207 55.9885L44.9106 56.621L39.4477 54.7757L39.3605 55.0381C39.1555 55.6554 39.1648 56.2244 39.3886 56.7461C39.626 57.2612 40.0814 57.6324 40.7546 57.8596C41.2443 58.0254 41.6934 58.0569 42.1017 57.9542C42.5102 57.852 42.8932 57.6552 43.2509 57.3644L43.9073 58.6671C43.4474 59.0612 42.8874 59.3124 42.2272 59.4212C41.5704 59.5193 40.8697 59.443 40.125 59.1913ZM42.4779 52.1098C42.1922 52.0132 41.9099 51.9751 41.6309 51.9954C41.3621 52.0188 41.1102 52.094 40.8753 52.2207C40.6505 52.3508 40.4495 52.5288 40.2723 52.7551C40.095 52.9808 39.9552 53.2483 39.8526 53.5569L39.8168 53.6647L43.5199 54.9156L43.5712 54.7615C43.7762 54.1442 43.7821 53.5971 43.5889 53.1202C43.3991 52.6325 43.0287 52.2959 42.4779 52.1098ZM49.361 49.4068L51.0292 49.9702L49.4604 54.6913L49.5369 54.7173C49.8709 54.2922 50.2745 54.0166 50.7478 53.8905C51.2345 53.7573 51.7428 53.7807 52.2733 53.9596C53.2835 54.3008 53.9406 54.9349 54.2457 55.8613C54.5538 56.7776 54.4873 57.8993 54.0465 59.2259C53.6057 60.553 52.9869 61.4937 52.1901 62.0479C51.3963 62.5925 50.4946 62.6942 49.4847 62.353C48.9543 62.1735 48.5345 61.8832 48.2255 61.4815C47.9267 61.0829 47.7692 60.6181 47.753 60.0863L47.6765 60.0603L47.2356 61.3874L45.5677 60.8241L49.361 49.4068ZM49.4617 60.732C50.0431 60.9283 50.5688 60.8998 51.0388 60.6471C51.5118 60.3837 51.8512 59.9434 52.056 59.3261L52.5174 57.9374C52.7227 57.3202 52.7131 56.7679 52.4892 56.2808C52.2688 55.783 51.8679 55.4357 51.2864 55.2395C50.7765 55.0671 50.3053 55.0508 49.873 55.1912C49.4442 55.3208 49.1613 55.5913 49.0247 56.0027L48.1122 58.749C47.9755 59.1603 48.0379 59.5534 48.2993 59.9276C48.5641 60.2917 48.9515 60.5596 49.4617 60.732Z" fill="white"/>
  <path d="M21.4237 64.6025L25.0044 65.8122C25.6675 66.0359 26.2318 66.3527 26.6973 66.7615C27.1628 67.1703 27.5091 67.6646 27.7362 68.2447C27.9769 68.8178 28.0865 69.4783 28.0649 70.2263C28.0468 70.9636 27.8891 71.7802 27.5919 72.6746C27.2945 73.5695 26.9311 74.322 26.5015 74.9322C26.0753 75.5317 25.5932 75.9924 25.0552 76.3137C24.5308 76.6285 23.9607 76.808 23.3449 76.8517C22.729 76.8954 22.0895 76.8049 21.4264 76.5812L17.8457 75.3715L21.4237 64.6025ZM21.8057 75.4397C22.2444 75.5876 22.6713 75.6517 23.0863 75.6319C23.5049 75.6014 23.8946 75.4875 24.2555 75.2886C24.6165 75.0903 24.9367 74.8097 25.2162 74.4466C25.5093 74.0764 25.7448 73.6239 25.9224 73.089L26.5068 71.3302C26.6845 70.7952 26.7652 70.2964 26.7489 69.8332C26.7462 69.3634 26.66 68.9393 26.4905 68.562C26.3209 68.1842 26.0765 67.8614 25.7571 67.5934C25.4411 67.3152 25.0637 67.1022 24.6251 66.9537L22.3298 66.1783L19.5104 74.6642L21.8057 75.4397ZM30.8966 79.9859C30.3559 79.8029 29.8987 79.54 29.525 79.1963C29.1614 78.8561 28.8814 78.4529 28.6847 77.9861C28.5017 77.5122 28.4072 76.9941 28.4012 76.4317C28.4089 75.8622 28.5186 75.2586 28.7305 74.621C28.939 73.9936 29.2103 73.45 29.5443 72.9908C29.8886 72.5353 30.2736 72.1793 30.6993 71.9225C31.1386 71.6592 31.6049 71.502 32.0983 71.4512C32.6019 71.4039 33.124 71.4715 33.6647 71.6546C34.1951 71.8336 34.6371 72.0913 34.9904 72.428C35.3437 72.7651 35.6102 73.1581 35.7898 73.6076C35.9729 74.0469 36.0624 74.529 36.0582 75.0537C36.0642 75.582 35.9732 76.1291 35.7853 76.6951L35.5905 77.2813L29.9134 75.3639L29.7903 75.7341C29.6776 76.0732 29.6227 76.4093 29.6255 76.7424C29.6421 77.0683 29.7114 77.3719 29.8335 77.653C29.9657 77.9383 30.1542 78.1905 30.3988 78.4107C30.6536 78.6339 30.9647 78.8073 31.3319 78.9314C31.8318 79.1002 32.3046 79.1286 32.7505 79.0163C33.2065 78.9069 33.61 78.6659 33.961 78.2922L34.6231 79.2197C34.1869 79.6783 33.6421 79.9864 32.9887 80.143C32.3386 80.29 31.6413 80.2371 30.8966 79.9859ZM33.3212 72.6878C32.9846 72.5744 32.6581 72.5327 32.3416 72.5632C32.0286 72.583 31.7342 72.6669 31.4584 72.8139C31.1927 72.9644 30.9543 73.1698 30.743 73.4302C30.5351 73.6803 30.373 73.9803 30.2568 74.3302L30.221 74.438L34.582 75.911L34.6384 75.7412C34.8742 75.0314 34.8684 74.4003 34.6208 73.8476C34.3869 73.2883 33.9537 72.9019 33.3212 72.6878ZM38.698 82.6208C37.9636 82.3727 37.3925 82.0254 36.9849 81.579C36.5909 81.1254 36.294 80.6017 36.0941 80.0083L37.2021 79.5929C37.3783 80.0871 37.6193 80.5061 37.925 80.8493C38.2341 81.1829 38.6386 81.4336 39.1384 81.6024C39.6587 81.7783 40.0993 81.8012 40.4601 81.6715C40.8311 81.5449 41.085 81.2764 41.2216 80.8646C41.3242 80.5564 41.3093 80.2595 41.1771 79.9747C41.0584 79.6829 40.7526 79.4078 40.2597 79.15L39.663 78.8454C39.3129 78.67 39.0019 78.4793 38.73 78.2729C38.4616 78.0563 38.2391 77.8214 38.0625 77.5671C37.8996 77.3063 37.7963 77.0195 37.7525 76.7073C37.7189 76.3986 37.7636 76.059 37.8867 75.6888C38.0166 75.2978 38.2007 74.9825 38.4392 74.7425C38.6811 74.4929 38.957 74.3114 39.2668 74.1985C39.5867 74.0892 39.9355 74.0469 40.3131 74.0714C40.6941 74.0856 41.0836 74.1603 41.4814 74.2946C42.1241 74.5117 42.6221 74.8056 42.9754 75.1768C43.3389 75.551 43.6172 75.9939 43.8104 76.5054L42.7533 76.9722C42.6619 76.6666 42.4803 76.3595 42.2086 76.0503C41.9403 75.731 41.5511 75.4849 41.0411 75.3125C40.531 75.1402 40.1058 75.1224 39.7653 75.2591C39.4385 75.3893 39.2119 75.6446 39.0854 76.0249C38.9556 76.4159 38.9891 76.7419 39.1861 77.0027C39.3932 77.2671 39.7279 77.5234 40.1903 77.771L40.7716 78.07C41.6045 78.5002 42.1414 78.9675 42.3822 79.4724C42.6264 79.9666 42.6477 80.5173 42.4461 81.1239C42.1898 81.8953 41.728 82.4144 41.0608 82.6808C40.3936 82.9473 39.606 82.9275 38.698 82.6208ZM47.722 74.532C47.4567 74.4425 47.2834 74.3149 47.202 74.1502C47.1342 73.9788 47.1345 73.7902 47.2028 73.5842L47.2694 73.3839C47.3378 73.178 47.4486 73.0325 47.6018 72.9471C47.7687 72.8546 47.9847 72.853 48.2499 72.9425C48.5152 73.0325 48.6817 73.1627 48.7495 73.3346C48.8309 73.4993 48.8374 73.6844 48.7691 73.8903L48.7024 74.0907C48.6341 74.2966 48.5165 74.4456 48.3496 74.5381C48.1964 74.6236 47.9872 74.6215 47.722 74.532ZM46.4896 76.1922L47.7138 76.6056L45.0687 84.5668L43.8445 84.1529L46.4896 76.1922ZM54.0343 88.573C53.7609 89.3958 53.2395 89.889 52.4704 90.0522C51.7084 90.2297 50.6892 90.103 49.4142 89.6724C48.1799 89.2554 47.3487 88.7856 46.9208 88.2639C46.4929 87.7417 46.3832 87.1671 46.5916 86.5397C46.7352 86.1075 46.9602 85.8059 47.2666 85.6351C47.5697 85.4744 47.9338 85.4027 48.3591 85.4205L48.4154 85.2507C48.0214 84.8663 47.9098 84.4163 48.0806 83.9022C48.2139 83.501 48.4422 83.2407 48.7656 83.1212C49.0924 82.9915 49.4718 82.9422 49.9039 82.9737L49.9244 82.9117C49.5303 82.5273 49.2707 82.0793 49.1456 81.5678C49.0306 81.0598 49.0654 80.5285 49.25 79.9727C49.3833 79.5715 49.5777 79.2258 49.8333 78.9344C50.0889 78.643 50.3835 78.4224 50.7169 78.2719C51.0644 78.1147 51.4386 78.0293 51.84 78.0166C52.252 78.0069 52.6822 78.0776 53.131 78.2292C53.6923 78.4188 54.1578 78.6903 54.528 79.0442L54.5744 78.9054C54.6768 78.5968 54.8321 78.369 55.0399 78.222C55.2507 78.0644 55.5195 78.041 55.8462 78.1508L57.0243 78.549L56.6658 79.629L55.1659 79.1225L54.997 79.6315C55.2002 79.9747 55.3208 80.3474 55.3576 80.7486C55.408 81.1432 55.3616 81.5566 55.2179 81.9883C55.0847 82.3895 54.8901 82.7358 54.6344 83.0271C54.3787 83.3185 54.0776 83.5427 53.7302 83.6998C53.3968 83.8503 53.0241 83.9302 52.6121 83.9398C52.2006 83.9495 51.7704 83.8788 51.3216 83.7268C51.0664 83.6408 50.8198 83.529 50.5818 83.3912C50.2928 83.3739 50.0172 83.4008 49.7551 83.4725C49.4965 83.5341 49.3261 83.6881 49.2441 83.9347C49.1655 84.1712 49.2248 84.3685 49.4218 84.5266C49.619 84.6847 49.896 84.8241 50.2531 84.9451L51.9363 85.5136C52.9157 85.8441 53.5612 86.2737 53.8739 86.8025C54.1997 87.3247 54.2531 87.9146 54.0343 88.573ZM52.8557 88.2776C52.9621 87.9588 52.9248 87.6603 52.7447 87.3822C52.5718 87.1178 52.1794 86.8824 51.5672 86.6754L48.9352 85.7866C48.3703 85.8476 48.0059 86.1247 47.8418 86.6185C47.7256 86.9683 47.7541 87.3095 47.9271 87.6425C48.1103 87.9792 48.5131 88.2522 49.1353 88.4627L50.2677 88.8451C50.9514 89.0759 51.5177 89.1471 51.9666 89.0586C52.4159 88.9702 52.7125 88.7098 52.8557 88.2776ZM51.6494 82.7393C52.1698 82.9153 52.6242 82.9315 53.012 82.7881C53.4034 82.6341 53.6863 82.2949 53.8608 81.7702L54.004 81.3385C54.1785 80.8137 54.1538 80.3764 53.9294 80.0261C53.709 79.6656 53.3383 79.3976 52.8184 79.2217C52.2979 79.0463 51.842 79.0351 51.4507 79.1892C51.0624 79.3325 50.7815 79.6666 50.607 80.1908L50.4637 80.623C50.2893 81.1478 50.3125 81.5902 50.5328 81.9507C50.7573 82.301 51.1294 82.5639 51.6494 82.7393ZM55.7545 88.1759L58.3996 80.2147L59.6235 80.6281L59.1934 81.9242L59.2544 81.9446C59.5983 81.5576 59.9887 81.2892 60.4244 81.1386C60.8702 80.9917 61.3891 81.0186 61.9807 81.2185C62.7967 81.4941 63.3504 81.9786 63.6419 82.6717C63.9475 83.3581 63.9394 84.1849 63.6182 85.152L61.9212 90.2586L60.6972 89.8453L62.3221 84.9542C62.7972 83.5244 62.4376 82.6081 61.2444 82.2049C60.9993 82.1225 60.7497 82.0722 60.4945 82.0549C60.2494 82.0407 60.0144 82.0641 59.79 82.1256C59.5655 82.1871 59.3643 82.2964 59.1873 82.4541C59.0239 82.6046 58.8993 82.8085 58.8136 83.0658L56.9789 88.5893L55.7545 88.1759Z" fill="white"/>
</svg>